<svg width="533" height="590" viewBox="0 0 533 590" fill="none" xmlns="http://www.w3.org/2000/svg">
<rect x="2.99219" width="526" height="590" rx="24" fill="#F5F5F5"/>
<path d="M32.8245 34.3224H30.6086C30.5234 33.8489 30.3647 33.4322 30.1327 33.0724C29.9007 32.7125 29.6166 32.4071 29.2805 32.1562C28.9443 31.9052 28.5679 31.7158 28.1512 31.588C27.7393 31.4601 27.3013 31.3962 26.8373 31.3962C25.9992 31.3962 25.2487 31.6069 24.5858 32.0283C23.9277 32.4497 23.4069 33.0676 23.0233 33.882C22.6446 34.6964 22.4552 35.6907 22.4552 36.865C22.4552 38.0487 22.6446 39.0477 23.0233 39.8621C23.4069 40.6765 23.9301 41.2921 24.593 41.7087C25.2558 42.1254 26.0016 42.3337 26.8302 42.3337C27.2894 42.3337 27.7251 42.2722 28.137 42.1491C28.5537 42.0212 28.9301 41.8342 29.2662 41.588C29.6024 41.3418 29.8865 41.0411 30.1185 40.686C30.3553 40.3261 30.5186 39.9142 30.6086 39.4502L32.8245 39.4573C32.7061 40.1723 32.4765 40.8304 32.1356 41.4317C31.7994 42.0283 31.3662 42.5444 30.8359 42.98C30.3103 43.4109 29.709 43.7447 29.0319 43.9814C28.3548 44.2182 27.6162 44.3366 26.816 44.3366C25.5565 44.3366 24.4343 44.0383 23.4495 43.4417C22.4646 42.8403 21.6881 41.981 21.1199 40.8635C20.5565 39.7461 20.2748 38.4133 20.2748 36.865C20.2748 35.3119 20.5589 33.9791 21.127 32.8664C21.6952 31.749 22.4717 30.892 23.4566 30.2954C24.4414 29.694 25.5612 29.3934 26.816 29.3934C27.5877 29.3934 28.3074 29.5046 28.9751 29.7272C29.6474 29.945 30.2511 30.267 30.7861 30.6931C31.3212 31.1145 31.7639 31.6306 32.1143 32.2414C32.4646 32.8474 32.7014 33.5411 32.8245 34.3224ZM36.8548 44.3792C36.1635 44.3792 35.5385 44.2513 34.9798 43.9957C34.4211 43.7352 33.9784 43.3588 33.6517 42.8664C33.3297 42.374 33.1687 41.7703 33.1687 41.0553C33.1687 40.4398 33.2871 39.9332 33.5238 39.5354C33.7606 39.1377 34.0802 38.8228 34.4827 38.5908C34.8851 38.3588 35.3349 38.1836 35.8321 38.0653C36.3292 37.9469 36.8359 37.8569 37.352 37.7954C38.0054 37.7196 38.5357 37.6581 38.9429 37.6107C39.3501 37.5586 39.646 37.4758 39.8307 37.3621C40.0153 37.2485 40.1077 37.0638 40.1077 36.8082V36.7584C40.1077 36.1382 39.9325 35.6576 39.5821 35.3167C39.2364 34.9758 38.7203 34.8053 38.0338 34.8053C37.3188 34.8053 36.7554 34.9639 36.3435 35.2812C35.9363 35.5937 35.6545 35.9417 35.4983 36.3252L33.5025 35.8707C33.7393 35.2078 34.0849 34.6727 34.5395 34.2655C34.9988 33.8536 35.5267 33.5553 36.1233 33.3707C36.7199 33.1813 37.3472 33.0866 38.0054 33.0866C38.441 33.0866 38.9026 33.1386 39.3903 33.2428C39.8827 33.3422 40.342 33.5269 40.7682 33.7968C41.199 34.0667 41.5518 34.4526 41.8264 34.9545C42.101 35.4516 42.2383 36.0979 42.2383 36.8934V44.1377H40.1645V42.6462H40.0792C39.9419 42.9208 39.736 43.1907 39.4613 43.4559C39.1867 43.721 38.834 43.9412 38.4031 44.1164C37.9722 44.2916 37.4561 44.3792 36.8548 44.3792ZM37.3165 42.6746C37.9036 42.6746 38.4055 42.5586 38.8221 42.3266C39.2435 42.0946 39.5631 41.7916 39.781 41.4175C40.0035 41.0387 40.1148 40.6339 40.1148 40.203V38.7968C40.039 38.8725 39.8922 38.9436 39.6744 39.0099C39.4613 39.0714 39.2175 39.1259 38.9429 39.1732C38.6683 39.2158 38.4007 39.2561 38.1403 39.2939C37.8799 39.3271 37.6621 39.3555 37.4869 39.3792C37.075 39.4313 36.6986 39.5189 36.3577 39.642C36.0215 39.7651 35.7516 39.9426 35.548 40.1746C35.3491 40.4019 35.2497 40.7049 35.2497 41.0837C35.2497 41.6093 35.4438 42.007 35.8321 42.2769C36.2203 42.5421 36.7151 42.6746 37.3165 42.6746ZM43.4668 44.1377V33.2286H45.5052V35.0042H45.6401C45.8674 34.4028 46.2391 33.9341 46.7552 33.5979C47.2713 33.257 47.8892 33.0866 48.6089 33.0866C49.338 33.0866 49.9488 33.257 50.4412 33.5979C50.9384 33.9388 51.3054 34.4076 51.5421 35.0042H51.6557C51.9162 34.4218 52.3305 33.9578 52.8986 33.6121C53.4668 33.2617 54.1439 33.0866 54.9299 33.0866C55.9195 33.0866 56.7268 33.3967 57.3518 34.017C57.9815 34.6372 58.2964 35.5724 58.2964 36.8224V44.1377H56.1728V37.0212C56.1728 36.2826 55.9716 35.7475 55.5691 35.4161C55.1666 35.0847 54.686 34.9189 54.1273 34.9189C53.436 34.9189 52.8986 35.132 52.5151 35.5582C52.1316 35.9796 51.9398 36.5217 51.9398 37.1846V44.1377H49.8234V36.8863C49.8234 36.2944 49.6387 35.8186 49.2694 35.4587C48.9001 35.0989 48.4195 34.9189 47.8276 34.9189C47.4252 34.9189 47.0535 35.0255 46.7126 35.2385C46.3764 35.4469 46.1041 35.7381 45.8958 36.1121C45.6922 36.4862 45.5904 36.9194 45.5904 37.4118V44.1377H43.4668ZM59.5426 48.2286V33.2286H61.6165V34.9971H61.794C61.9171 34.7698 62.0947 34.507 62.3267 34.2087C62.5587 33.9104 62.8807 33.65 63.2926 33.4275C63.7045 33.2002 64.249 33.0866 64.9261 33.0866C65.8068 33.0866 66.5928 33.3091 67.2841 33.7542C67.9754 34.1992 68.5175 34.8408 68.9105 35.6789C69.3082 36.517 69.5071 37.5255 69.5071 38.7045C69.5071 39.8834 69.3106 40.8943 68.9176 41.7371C68.5246 42.5752 67.9848 43.2215 67.2983 43.676C66.6117 44.1259 65.8281 44.3508 64.9474 44.3508C64.2846 44.3508 63.7424 44.2395 63.321 44.017C62.9043 43.7944 62.5776 43.534 62.3409 43.2357C62.1042 42.9374 61.9219 42.6723 61.794 42.4403H61.6662V48.2286H59.5426ZM61.6236 38.6832C61.6236 39.4502 61.7348 40.1225 61.9574 40.7002C62.1799 41.2778 62.5019 41.73 62.9233 42.0567C63.3447 42.3787 63.8608 42.5397 64.4716 42.5397C65.106 42.5397 65.6364 42.3716 66.0625 42.0354C66.4886 41.6945 66.8106 41.2329 67.0284 40.6505C67.2509 40.0681 67.3622 39.4123 67.3622 38.6832C67.3622 37.9635 67.2533 37.3171 67.0355 36.7442C66.8224 36.1713 66.5005 35.7191 66.0696 35.3877C65.6435 35.0563 65.1108 34.8905 64.4716 34.8905C63.856 34.8905 63.3352 35.0492 62.9091 35.3664C62.4877 35.6836 62.1681 36.1263 61.9503 36.6945C61.7325 37.2627 61.6236 37.9256 61.6236 38.6832ZM73.4611 44.3792C72.7698 44.3792 72.1448 44.2513 71.5861 43.9957C71.0274 43.7352 70.5846 43.3588 70.2579 42.8664C69.936 42.374 69.775 41.7703 69.775 41.0553C69.775 40.4398 69.8934 39.9332 70.1301 39.5354C70.3668 39.1377 70.6864 38.8228 71.0889 38.5908C71.4914 38.3588 71.9412 38.1836 72.4383 38.0653C72.9355 37.9469 73.4421 37.8569 73.9582 37.7954C74.6116 37.7196 75.1419 37.6581 75.5491 37.6107C75.9563 37.5586 76.2523 37.4758 76.4369 37.3621C76.6216 37.2485 76.7139 37.0638 76.7139 36.8082V36.7584C76.7139 36.1382 76.5387 35.6576 76.1883 35.3167C75.8427 34.9758 75.3266 34.8053 74.64 34.8053C73.9251 34.8053 73.3616 34.9639 72.9497 35.2812C72.5425 35.5937 72.2608 35.9417 72.1045 36.3252L70.1088 35.8707C70.3455 35.2078 70.6912 34.6727 71.1457 34.2655C71.605 33.8536 72.1329 33.5553 72.7295 33.3707C73.3261 33.1813 73.9535 33.0866 74.6116 33.0866C75.0472 33.0866 75.5089 33.1386 75.9966 33.2428C76.489 33.3422 76.9483 33.5269 77.3744 33.7968C77.8053 34.0667 78.158 34.4526 78.4327 34.9545C78.7073 35.4516 78.8446 36.0979 78.8446 36.8934V44.1377H76.7707V42.6462H76.6855C76.5482 42.9208 76.3422 43.1907 76.0676 43.4559C75.793 43.721 75.4402 43.9412 75.0094 44.1164C74.5785 44.2916 74.0624 44.3792 73.4611 44.3792ZM73.9227 42.6746C74.5098 42.6746 75.0117 42.5586 75.4284 42.3266C75.8498 42.0946 76.1694 41.7916 76.3872 41.4175C76.6097 41.0387 76.721 40.6339 76.721 40.203V38.7968C76.6453 38.8725 76.4985 38.9436 76.2807 39.0099C76.0676 39.0714 75.8238 39.1259 75.5491 39.1732C75.2745 39.2158 75.007 39.2561 74.7466 39.2939C74.4862 39.3271 74.2684 39.3555 74.0932 39.3792C73.6812 39.4313 73.3048 39.5189 72.9639 39.642C72.6277 39.7651 72.3578 39.9426 72.1542 40.1746C71.9554 40.4019 71.856 40.7049 71.856 41.0837C71.856 41.6093 72.0501 42.007 72.4383 42.2769C72.8266 42.5421 73.3214 42.6746 73.9227 42.6746ZM80.0731 44.1377V33.2286H82.1967V44.1377H80.0731ZM81.1455 31.5454C80.7762 31.5454 80.459 31.4223 80.1938 31.176C79.9334 30.9251 79.8032 30.6268 79.8032 30.2812C79.8032 29.9308 79.9334 29.6325 80.1938 29.3863C80.459 29.1353 80.7762 29.0099 81.1455 29.0099C81.5148 29.0099 81.8297 29.1353 82.0901 29.3863C82.3553 29.6325 82.4878 29.9308 82.4878 30.2812C82.4878 30.6268 82.3553 30.9251 82.0901 31.176C81.8297 31.4223 81.5148 31.5454 81.1455 31.5454ZM88.0274 48.4559C87.1609 48.4559 86.4152 48.3422 85.7902 48.115C85.1699 47.8877 84.6633 47.587 84.2703 47.213C83.8773 46.8389 83.5838 46.4294 83.3896 45.9843L85.2149 45.2314C85.3427 45.4398 85.5132 45.66 85.7263 45.892C85.9441 46.1287 86.2376 46.3299 86.607 46.4957C86.981 46.6614 87.4616 46.7442 88.0487 46.7442C88.8536 46.7442 89.5189 46.5477 90.0445 46.1547C90.57 45.7665 90.8328 45.1462 90.8328 44.2939V42.1491H90.6979C90.57 42.3811 90.3854 42.6391 90.1439 42.9232C89.9071 43.2073 89.5804 43.4535 89.1638 43.6618C88.7471 43.8702 88.205 43.9743 87.5373 43.9743C86.6756 43.9743 85.8991 43.7731 85.2078 43.3707C84.5213 42.9635 83.9767 42.3645 83.5743 41.5738C83.1766 40.7783 82.9777 39.8006 82.9777 38.6405C82.9777 37.4805 83.1742 36.4862 83.5672 35.6576C83.9649 34.829 84.5094 34.1945 85.2007 33.7542C85.892 33.3091 86.6756 33.0866 87.5516 33.0866C88.2286 33.0866 88.7755 33.2002 89.1922 33.4275C89.6088 33.65 89.9332 33.9104 90.1652 34.2087C90.4019 34.507 90.5842 34.7698 90.7121 34.9971H90.8683V33.2286H92.9493V44.3792C92.9493 45.3167 92.7315 46.0861 92.2959 46.6874C91.8603 47.2887 91.2708 47.7338 90.5274 48.0226C89.7888 48.3115 88.9554 48.4559 88.0274 48.4559ZM88.0061 42.213C88.6169 42.213 89.133 42.0709 89.5544 41.7868C89.9805 41.498 90.3025 41.0861 90.5203 40.551C90.7428 40.0113 90.8541 39.365 90.8541 38.6121C90.8541 37.8782 90.7452 37.2319 90.5274 36.6732C90.3096 36.1145 89.99 35.6789 89.5686 35.3664C89.1472 35.0492 88.6264 34.8905 88.0061 34.8905C87.3669 34.8905 86.8342 35.0563 86.4081 35.3877C85.982 35.7144 85.66 36.1595 85.4422 36.7229C85.2291 37.2864 85.1226 37.9161 85.1226 38.6121C85.1226 39.3271 85.2315 39.9545 85.4493 40.4942C85.6671 41.034 85.9891 41.4554 86.4152 41.7584C86.8461 42.0615 87.3764 42.213 88.0061 42.213ZM96.3209 37.6604V44.1377H94.1973V33.2286H96.2356V35.0042H96.3706C96.6215 34.4265 97.0145 33.9625 97.5496 33.6121C98.0893 33.2617 98.7688 33.0866 99.5879 33.0866C100.331 33.0866 100.982 33.2428 101.541 33.5553C102.1 33.8631 102.533 34.3224 102.841 34.9332C103.149 35.5439 103.302 36.2992 103.302 37.1988V44.1377H101.179V37.4545C101.179 36.6637 100.973 36.0458 100.561 35.6008C100.149 35.151 99.5832 34.926 98.8635 34.926C98.3711 34.926 97.9331 35.0326 97.5496 35.2457C97.1708 35.4587 96.8701 35.7712 96.6476 36.1832C96.4298 36.5903 96.3209 37.0828 96.3209 37.6604Z" fill="#121212"/>
<path d="M234.747 559.818L237.397 567.832H237.501L240.146 559.818H242.174L238.585 570H236.308L232.723 559.818H234.747ZM244.24 559.818V570H242.396V559.818H244.24ZM245.117 570V559.818H251.739V561.364H246.962V564.129H251.396V565.675H246.962V568.454H251.779V570H245.117ZM254.644 570L251.77 559.818H253.754L255.589 567.3H255.683L257.642 559.818H259.447L261.41 567.305H261.5L263.334 559.818H265.318L262.444 570H260.625L258.586 562.856H258.507L256.464 570H254.644ZM267.83 559.818H270.087L273.109 567.196H273.229L276.251 559.818H278.509V570H276.739V563.005H276.644L273.83 569.97H272.508L269.694 562.99H269.599V570H267.83V559.818ZM288.495 564.909C288.495 566.006 288.29 566.946 287.879 567.728C287.471 568.507 286.914 569.103 286.208 569.518C285.506 569.932 284.708 570.139 283.817 570.139C282.925 570.139 282.126 569.932 281.421 569.518C280.718 569.1 280.161 568.502 279.75 567.723C279.342 566.941 279.139 566.003 279.139 564.909C279.139 563.812 279.342 562.874 279.75 562.095C280.161 561.313 280.718 560.715 281.421 560.3C282.126 559.886 282.925 559.679 283.817 559.679C284.708 559.679 285.506 559.886 286.208 560.3C286.914 560.715 287.471 561.313 287.879 562.095C288.29 562.874 288.495 563.812 288.495 564.909ZM286.641 564.909C286.641 564.137 286.52 563.486 286.278 562.955C286.039 562.422 285.708 562.019 285.283 561.747C284.859 561.472 284.37 561.335 283.817 561.335C283.263 561.335 282.774 561.472 282.35 561.747C281.926 562.019 281.593 562.422 281.351 562.955C281.112 563.486 280.993 564.137 280.993 564.909C280.993 565.681 281.112 566.334 281.351 566.868C281.593 567.398 281.926 567.801 282.35 568.076C282.774 568.348 283.263 568.484 283.817 568.484C284.37 568.484 284.859 568.348 285.283 568.076C285.708 567.801 286.039 567.398 286.278 566.868C286.52 566.334 286.641 565.681 286.641 564.909ZM289.119 570V559.818H292.937C293.719 559.818 294.376 559.954 294.906 560.226C295.439 560.498 295.842 560.879 296.114 561.369C296.389 561.857 296.527 562.425 296.527 563.075C296.527 563.728 296.387 564.294 296.109 564.775C295.834 565.252 295.428 565.622 294.891 565.884C294.354 566.142 293.694 566.271 292.912 566.271H290.193V564.74H292.664C293.121 564.74 293.496 564.677 293.787 564.551C294.079 564.422 294.294 564.235 294.434 563.989C294.576 563.741 294.647 563.436 294.647 563.075C294.647 562.713 294.576 562.405 294.434 562.15C294.291 561.891 294.074 561.696 293.782 561.563C293.491 561.427 293.114 561.359 292.654 561.359H290.963V570H289.119ZM294.379 565.386L296.899 570H294.841L292.365 565.386H294.379ZM297.104 570V559.818H303.727V561.364H298.949V564.129H303.383V565.675H298.949V568.454H303.766V570H297.104Z" fill="#808080"/>
<g filter="url(#filter0_dd_4274_98)">
<rect x="3.14551" y="64.1377" width="526" height="477" rx="12" fill="#FCFCFC"/>
<rect x="3.29551" y="64.2877" width="525.7" height="476.7" rx="11.85" stroke="#01012E" stroke-opacity="0.08" stroke-width="0.3"/>
<mask id="path-6-inside-1_4274_98" fill="white">
<path d="M4.14551 65.1377L528.146 65.1377V110.138L4.14551 110.138L4.14551 65.1377Z"/>
</mask>
<path d="M4.14551 65.1377L528.146 65.1377V110.138L4.14551 110.138L4.14551 65.1377Z" fill="#FCFCFC"/>
<path d="M528.146 110.138V109.138L4.14551 109.138V110.138V111.138L528.146 111.138V110.138Z" fill="#01012E" fill-opacity="0.08" mask="url(#path-6-inside-1_4274_98)"/>
<path d="M21.9443 82.9368V93.7297H32.7373" stroke="#60646C" stroke-width="1.19922" stroke-linecap="round" stroke-linejoin="round"/>
<path d="M26.1416 87.134H24.9424C24.6112 87.134 24.3428 87.4025 24.3428 87.7336V90.7317C24.3428 91.0628 24.6112 91.3313 24.9424 91.3313H26.1416C26.4728 91.3313 26.7412 91.0628 26.7412 90.7317V87.7336C26.7412 87.4025 26.4728 87.134 26.1416 87.134Z" stroke="#60646C" stroke-width="1.19922" stroke-linecap="round" stroke-linejoin="round"/>
<path d="M30.9385 84.136H29.7393C29.4081 84.136 29.1396 84.4044 29.1396 84.7356V90.7317C29.1396 91.0628 29.4081 91.3313 29.7393 91.3313H30.9385C31.2696 91.3313 31.5381 91.0628 31.5381 90.7317V84.7356C31.5381 84.4044 31.2696 84.136 30.9385 84.136Z" stroke="#60646C" stroke-width="1.19922" stroke-linecap="round" stroke-linejoin="round"/>
<path d="M44.8645 93.1377H43.4345V85.0907H40.3925V83.8037H47.9065V85.0907H44.8645V93.1377ZM51.0382 93.2677C49.0882 93.2677 47.6582 91.7337 47.6582 89.6927C47.6582 87.6517 49.0882 86.1177 51.0382 86.1177C52.9882 86.1177 54.4182 87.6517 54.4182 89.6927C54.4182 91.7337 52.9882 93.2677 51.0382 93.2677ZM51.0382 92.1107C52.1692 92.1107 53.0662 91.2007 53.0662 89.6927C53.0662 88.1847 52.1692 87.2877 51.0382 87.2877C49.9072 87.2877 49.0232 88.1847 49.0232 89.6927C49.0232 91.2007 49.9072 92.1107 51.0382 92.1107ZM59.5167 91.8637V93.0207C59.1137 93.2027 58.7627 93.2677 58.3467 93.2677C57.0727 93.2677 56.1887 92.5787 56.1887 91.0577V87.3657H54.6677V86.2477H56.1887V84.2067H57.5017V86.2477H59.5817V87.3657H57.5017V90.7587C57.5017 91.7077 57.9567 92.0457 58.6587 92.0457C58.9707 92.0457 59.2437 91.9937 59.5167 91.8637ZM65.0078 93.1377V92.0717C64.5788 92.8387 63.8118 93.2677 62.7978 93.2677C61.3678 93.2677 60.4318 92.4487 60.4318 91.1877C60.4318 89.8357 61.5108 89.1337 63.5648 89.1337C63.9678 89.1337 64.2928 89.1467 64.8518 89.2117V88.7047C64.8518 87.7167 64.3188 87.1577 63.4088 87.1577C62.4468 87.1577 61.8618 87.7297 61.8228 88.6917H60.6268C60.6918 87.1447 61.7968 86.1177 63.4088 86.1177C65.1118 86.1177 66.0998 87.0797 66.0998 88.7177V93.1377H65.0078ZM61.6798 91.1487C61.6798 91.8637 62.2128 92.3317 63.0578 92.3317C64.1628 92.3317 64.8518 91.6427 64.8518 90.5897V90.0307C64.3448 89.9657 63.9808 89.9527 63.6428 89.9527C62.3298 89.9527 61.6798 90.3427 61.6798 91.1487ZM69.1813 93.1377H67.8553V83.8037H69.1813V93.1377ZM80.6495 90.4077C80.6495 92.0327 79.3495 93.2677 77.0875 93.2677C74.8385 93.2677 73.4735 92.0327 73.3565 90.1737H74.8125C74.8775 91.3567 75.6315 92.1237 77.0615 92.1237C78.2445 92.1237 79.1285 91.5647 79.1285 90.6027C79.1285 89.8227 78.6215 89.4327 77.5425 89.1987L76.1905 88.9387C74.8775 88.6787 73.6815 88.0157 73.6815 86.4297C73.6815 84.8567 75.0595 83.6737 76.9965 83.6737C78.9335 83.6737 80.4025 84.8567 80.5195 86.7157H79.0635C78.9855 85.5977 78.1795 84.8177 77.0095 84.8177C75.8005 84.8177 75.1375 85.5327 75.1375 86.3387C75.1375 87.2227 75.9045 87.5347 76.7755 87.7167L78.1535 87.9897C79.7525 88.3147 80.6495 89.0167 80.6495 90.4077ZM88.779 89.6927C88.779 91.7727 87.583 93.2677 85.737 93.2677C84.801 93.2677 84.008 92.7997 83.514 91.9677V95.6467H82.201V86.2477H83.423V87.5087C83.917 86.6247 84.762 86.1177 85.737 86.1177C87.57 86.1177 88.779 87.6127 88.779 89.6927ZM87.414 89.6927C87.414 88.1457 86.595 87.2747 85.464 87.2747C84.372 87.2747 83.514 88.1457 83.514 89.6927C83.514 91.2137 84.359 92.0977 85.464 92.0977C86.595 92.0977 87.414 91.2397 87.414 89.6927ZM92.9442 93.2677C90.9552 93.2677 89.6162 91.8247 89.6162 89.6537C89.6162 87.6127 91.0072 86.1177 92.9052 86.1177C94.9592 86.1177 96.3242 87.7817 96.0902 90.0177H90.9552C91.0592 91.4217 91.7612 92.2407 92.9182 92.2407C93.8932 92.2407 94.5692 91.7077 94.7902 90.8107H96.0902C95.7522 92.3447 94.5692 93.2677 92.9442 93.2677ZM92.8792 87.1057C91.8262 87.1057 91.1112 87.8597 90.9682 89.1467H94.6992C94.6342 87.8727 93.9452 87.1057 92.8792 87.1057ZM98.7992 89.2507V93.1377H97.4862V86.2477H98.7082V87.3917C99.1762 86.6247 99.9562 86.1177 100.905 86.1177C102.322 86.1177 103.258 87.0277 103.258 88.6787V93.1377H101.945V89.1207C101.945 87.9377 101.425 87.2747 100.45 87.2747C99.5532 87.2747 98.7992 88.0287 98.7992 89.2507ZM104.508 89.6927C104.508 87.5997 105.704 86.1177 107.563 86.1177C108.486 86.1177 109.292 86.5857 109.773 87.4307V83.8037H111.086V93.1377H109.864V91.9027C109.37 92.7737 108.538 93.2677 107.563 93.2677C105.704 93.2677 104.508 91.7597 104.508 89.6927ZM105.873 89.6927C105.873 91.2267 106.679 92.0977 107.823 92.0977C108.941 92.0977 109.773 91.1877 109.773 89.6667C109.773 88.1197 108.915 87.2747 107.823 87.2747C106.679 87.2747 105.873 88.1327 105.873 89.6927ZM119.801 93.3327C117.201 93.3327 115.186 91.2137 115.186 88.4577C115.186 85.7147 117.201 83.6087 119.801 83.6087C122.141 83.6087 124.013 85.1687 124.364 87.4697H122.843C122.583 85.9617 121.361 84.8957 119.814 84.8957C117.968 84.8957 116.668 86.3907 116.668 88.4577C116.668 90.5507 117.968 92.0457 119.814 92.0457C121.361 92.0457 122.583 90.9667 122.843 89.4587H124.364C124.013 91.7727 122.141 93.3327 119.801 93.3327ZM127.059 89.2507V93.1377H125.746V83.8037H127.059V87.3527C127.514 86.6117 128.216 86.1177 129.165 86.1177C130.582 86.1177 131.518 87.0277 131.518 88.6787V93.1377H130.205V89.1207C130.205 87.9377 129.685 87.2747 128.71 87.2747C127.813 87.2747 127.059 88.0287 127.059 89.2507ZM137.435 93.1377V92.0717C137.006 92.8387 136.239 93.2677 135.225 93.2677C133.795 93.2677 132.859 92.4487 132.859 91.1877C132.859 89.8357 133.938 89.1337 135.992 89.1337C136.395 89.1337 136.72 89.1467 137.279 89.2117V88.7047C137.279 87.7167 136.746 87.1577 135.836 87.1577C134.874 87.1577 134.289 87.7297 134.25 88.6917H133.054C133.119 87.1447 134.224 86.1177 135.836 86.1177C137.539 86.1177 138.527 87.0797 138.527 88.7177V93.1377H137.435ZM134.107 91.1487C134.107 91.8637 134.64 92.3317 135.485 92.3317C136.59 92.3317 137.279 91.6427 137.279 90.5897V90.0307C136.772 89.9657 136.408 89.9527 136.07 89.9527C134.757 89.9527 134.107 90.3427 134.107 91.1487ZM141.595 89.6147V93.1377H140.282V86.2477H141.504V87.7037C141.985 86.7547 143.025 86.1567 144.156 86.1567V87.5217C142.674 87.4437 141.595 88.0937 141.595 89.6147ZM149.501 91.8637V93.0207C149.098 93.2027 148.747 93.2677 148.331 93.2677C147.057 93.2677 146.173 92.5787 146.173 91.0577V87.3657H144.652V86.2477H146.173V84.2067H147.486V86.2477H149.566V87.3657H147.486V90.7587C147.486 91.7077 147.941 92.0457 148.643 92.0457C148.955 92.0457 149.228 91.9937 149.501 91.8637Z" fill="#60646C"/>
<rect x="437.296" y="75.2877" width="73.7" height="23.7" rx="11.85" stroke="black" stroke-opacity="0.2" stroke-width="0.3"/>
<path d="M450.316 91.1377L447.336 84.3577V91.1377H446.996V83.9577H447.516L450.486 90.7077L453.476 83.9577H453.986V91.1377H453.646V84.3777L450.656 91.1377H450.316ZM457.657 91.2377C456.247 91.2377 455.257 90.1277 455.257 88.5177C455.257 86.9277 456.247 85.8177 457.657 85.8177C459.067 85.8177 460.057 86.9277 460.057 88.5177C460.057 90.1277 459.067 91.2377 457.657 91.2377ZM457.657 90.9577C458.857 90.9577 459.717 89.9877 459.717 88.5177C459.717 87.0677 458.857 86.0977 457.657 86.0977C456.457 86.0977 455.597 87.0677 455.597 88.5177C455.597 89.9877 456.457 90.9577 457.657 90.9577ZM461.651 87.9877V91.1377H461.311V85.9077H461.641V87.0177C461.951 86.3077 462.641 85.8077 463.431 85.8077C464.541 85.8077 465.231 86.5077 465.231 87.7377V91.1377H464.891V87.8577C464.891 86.7277 464.351 86.0877 463.371 86.0877C462.421 86.0877 461.651 86.9377 461.651 87.9877ZM469.229 90.8277V91.1377C468.999 91.2177 468.819 91.2377 468.639 91.2377C467.879 91.2377 467.229 90.8877 467.229 89.7777V86.1777H465.909V85.9077H467.229V84.3577H467.569V85.9077H469.289V86.1777H467.569V89.7177C467.569 90.6377 468.039 90.9277 468.659 90.9277C468.859 90.9277 469.009 90.9077 469.229 90.8277ZM470.792 87.9877V91.1377H470.452V83.9577H470.792V87.0177C471.102 86.3077 471.782 85.8077 472.572 85.8077C473.682 85.8077 474.372 86.5077 474.372 87.7377V91.1377H474.032V87.8577C474.032 86.7277 473.492 86.0877 472.512 86.0877C471.562 86.0877 470.792 86.9377 470.792 87.9877ZM476.319 91.1377H475.979V83.9577H476.319V91.1377ZM481.651 85.9077L478.901 93.0677H478.551L479.321 91.0677L477.231 85.9077H477.591L479.491 90.6277L481.291 85.9077H481.651Z" fill="black"/>
<path d="M499.146 85.6377C499.146 85.6377 496.936 88.6377 496.146 88.6377C495.355 88.6377 493.146 85.6377 493.146 85.6377" stroke="#141B34" stroke-linecap="round" stroke-linejoin="round"/>
<path d="M27.9621 138.07L27.0521 135.578H22.7121L21.7881 138.07H20.2341L24.0841 128.018H25.7781L29.6001 138.07H27.9621ZM24.8961 129.698L23.1741 134.332H26.5901L24.8961 129.698ZM32.2876 134.276V138.07H30.8736V130.65H32.1896V132.218C32.7076 131.196 33.8276 130.552 35.0456 130.552V132.022C33.4496 131.938 32.2876 132.638 32.2876 134.276ZM40.8017 136.698V137.944C40.3677 138.14 39.9897 138.21 39.5417 138.21C38.1697 138.21 37.2177 137.468 37.2177 135.83V131.854H35.5797V130.65H37.2177V128.452H38.6317V130.65H40.8717V131.854H38.6317V135.508C38.6317 136.53 39.1217 136.894 39.8777 136.894C40.2137 136.894 40.5077 136.838 40.8017 136.698ZM48.3532 138.07L46.6732 132.554L44.9792 138.07H43.5512L41.4092 130.65H42.7952L44.2932 136.054L45.9732 130.65H47.3732L49.0252 136.068L50.5232 130.65H51.9232L49.7672 138.07H48.3532ZM54.7987 128.928C54.7987 129.46 54.3787 129.866 53.7767 129.866C53.1747 129.866 52.7407 129.46 52.7407 128.928C52.7407 128.382 53.1747 127.99 53.7767 127.99C54.3787 127.99 54.7987 128.382 54.7987 128.928ZM54.4907 138.07H53.0767V130.65H54.4907V138.07ZM62.0676 138.07H55.9496V136.964L60.1636 131.868H56.0196V130.65H61.9276V131.784L57.7136 136.838H62.0676V138.07ZM70.4951 138.07H68.9551V129.404H65.6791V128.018H73.7711V129.404H70.4951V138.07ZM77.1437 138.21C75.0437 138.21 73.5037 136.558 73.5037 134.36C73.5037 132.162 75.0437 130.51 77.1437 130.51C79.2437 130.51 80.7837 132.162 80.7837 134.36C80.7837 136.558 79.2437 138.21 77.1437 138.21ZM77.1437 136.964C78.3617 136.964 79.3277 135.984 79.3277 134.36C79.3277 132.736 78.3617 131.77 77.1437 131.77C75.9257 131.77 74.9737 132.736 74.9737 134.36C74.9737 135.984 75.9257 136.964 77.1437 136.964ZM86.2744 136.698V137.944C85.8404 138.14 85.4624 138.21 85.0144 138.21C83.6424 138.21 82.6904 137.468 82.6904 135.83V131.854H81.0524V130.65H82.6904V128.452H84.1044V130.65H86.3444V131.854H84.1044V135.508C84.1044 136.53 84.5944 136.894 85.3504 136.894C85.6864 136.894 85.9804 136.838 86.2744 136.698ZM92.1879 138.07V136.922C91.7259 137.748 90.8999 138.21 89.8079 138.21C88.2679 138.21 87.2599 137.328 87.2599 135.97C87.2599 134.514 88.4219 133.758 90.6339 133.758C91.0679 133.758 91.4179 133.772 92.0199 133.842V133.296C92.0199 132.232 91.4459 131.63 90.4659 131.63C89.4299 131.63 88.7999 132.246 88.7579 133.282H87.4699C87.5399 131.616 88.7299 130.51 90.4659 130.51C92.2999 130.51 93.3639 131.546 93.3639 133.31V138.07H92.1879ZM88.6039 135.928C88.6039 136.698 89.1779 137.202 90.0879 137.202C91.2779 137.202 92.0199 136.46 92.0199 135.326V134.724C91.4739 134.654 91.0819 134.64 90.7179 134.64C89.3039 134.64 88.6039 135.06 88.6039 135.928ZM96.6824 138.07H95.2544V128.018H96.6824V138.07ZM103.223 138.07H101.683V128.018H103.223V138.07ZM106.704 133.884V138.07H105.29V130.65H106.606V131.882C107.11 131.056 107.95 130.51 108.972 130.51C110.498 130.51 111.506 131.49 111.506 133.268V138.07H110.092V133.744C110.092 132.47 109.532 131.756 108.482 131.756C107.516 131.756 106.704 132.568 106.704 133.884ZM115.442 138.07H114.028V131.854H112.39V130.65H114.028V130.104C114.028 128.676 114.798 127.892 116.198 127.892C116.618 127.892 116.954 127.962 117.234 128.074V129.222C117.01 129.124 116.758 129.096 116.506 129.096C115.834 129.096 115.442 129.404 115.442 130.118V130.65H117.514V131.854H115.442V138.07ZM120.006 138.07H118.578V128.018H120.006V138.07ZM126.603 135.018V130.65H128.017V138.07H126.701V136.894C126.309 137.664 125.441 138.21 124.433 138.21C122.935 138.21 121.899 137.328 121.899 135.424V130.65H123.313V135.144C123.313 136.432 123.957 136.964 124.881 136.964C125.833 136.964 126.603 136.18 126.603 135.018ZM133.033 138.21C130.891 138.21 129.449 136.656 129.449 134.318C129.449 132.12 130.947 130.51 132.991 130.51C135.203 130.51 136.673 132.302 136.421 134.71H130.891C131.003 136.222 131.759 137.104 133.005 137.104C134.055 137.104 134.783 136.53 135.021 135.564H136.421C136.057 137.216 134.783 138.21 133.033 138.21ZM132.963 131.574C131.829 131.574 131.059 132.386 130.905 133.772H134.923C134.853 132.4 134.111 131.574 132.963 131.574ZM139.338 133.884V138.07H137.924V130.65H139.24V131.882C139.744 131.056 140.584 130.51 141.606 130.51C143.132 130.51 144.14 131.49 144.14 133.268V138.07H142.726V133.744C142.726 132.47 142.166 131.756 141.116 131.756C140.15 131.756 139.338 132.568 139.338 133.884ZM148.944 138.224C146.914 138.224 145.486 136.628 145.486 134.36C145.486 132.12 146.942 130.51 148.944 130.51C150.778 130.51 152.108 131.728 152.374 133.66H150.89C150.736 132.47 149.994 131.756 148.958 131.756C147.74 131.756 146.942 132.792 146.942 134.36C146.942 135.942 147.74 136.964 148.958 136.964C150.008 136.964 150.736 136.264 150.904 135.06H152.374C152.122 137.02 150.806 138.224 148.944 138.224ZM156.781 138.21C154.639 138.21 153.197 136.656 153.197 134.318C153.197 132.12 154.695 130.51 156.739 130.51C158.951 130.51 160.421 132.302 160.169 134.71H154.639C154.751 136.222 155.507 137.104 156.753 137.104C157.803 137.104 158.531 136.53 158.769 135.564H160.169C159.805 137.216 158.531 138.21 156.781 138.21ZM156.711 131.574C155.577 131.574 154.807 132.386 154.653 133.772H158.671C158.601 132.4 157.859 131.574 156.711 131.574ZM163.086 134.276V138.07H161.672V130.65H162.988V132.218C163.506 131.196 164.626 130.552 165.844 130.552V132.022C164.248 131.938 163.086 132.638 163.086 134.276ZM174.593 138.07L171.415 130.384V138.07H170.001V128.018H171.891L175.265 136.18L178.625 128.018H180.529V138.07H179.101V130.37L175.909 138.07H174.593ZM187.084 138.07V136.922C186.622 137.748 185.796 138.21 184.704 138.21C183.164 138.21 182.156 137.328 182.156 135.97C182.156 134.514 183.318 133.758 185.53 133.758C185.964 133.758 186.314 133.772 186.916 133.842V133.296C186.916 132.232 186.342 131.63 185.362 131.63C184.326 131.63 183.696 132.246 183.654 133.282H182.366C182.436 131.616 183.626 130.51 185.362 130.51C187.196 130.51 188.26 131.546 188.26 133.31V138.07H187.084ZM183.5 135.928C183.5 136.698 184.074 137.202 184.984 137.202C186.174 137.202 186.916 136.46 186.916 135.326V134.724C186.37 134.654 185.978 134.64 185.614 134.64C184.2 134.64 183.5 135.06 183.5 135.928ZM191.565 134.276V138.07H190.151V130.65H191.467V132.218C191.985 131.196 193.105 130.552 194.323 130.552V132.022C192.727 131.938 191.565 132.638 191.565 134.276ZM196.856 138.07H195.442V128.018L196.856 128.018V133.968L200.034 130.65H201.7L198.27 134.248L202.022 138.07L200.202 138.07L196.856 134.556V138.07ZM205.713 138.21C203.571 138.21 202.129 136.656 202.129 134.318C202.129 132.12 203.627 130.51 205.671 130.51C207.883 130.51 209.353 132.302 209.101 134.71H203.571C203.683 136.222 204.439 137.104 205.685 137.104C206.735 137.104 207.463 136.53 207.701 135.564H209.101C208.737 137.216 207.463 138.21 205.713 138.21ZM205.643 131.574C204.509 131.574 203.739 132.386 203.585 133.772H207.603C207.533 132.4 206.791 131.574 205.643 131.574ZM214.763 136.698V137.944C214.329 138.14 213.951 138.21 213.503 138.21C212.131 138.21 211.179 137.468 211.179 135.83V131.854H209.541V130.65H211.179V128.452H212.593V130.65H214.833V131.854H212.593V135.508C212.593 136.53 213.083 136.894 213.839 136.894C214.175 136.894 214.469 136.838 214.763 136.698ZM217.904 128.928C217.904 129.46 217.484 129.866 216.882 129.866C216.28 129.866 215.846 129.46 215.846 128.928C215.846 128.382 216.28 127.99 216.882 127.99C217.484 127.99 217.904 128.382 217.904 128.928ZM217.596 138.07H216.182V130.65H217.596V138.07ZM220.973 133.884V138.07H219.559V130.65H220.875V131.882C221.379 131.056 222.219 130.51 223.241 130.51C224.767 130.51 225.775 131.49 225.775 133.268V138.07H224.361V133.744C224.361 132.47 223.801 131.756 222.751 131.756C221.785 131.756 220.973 132.568 220.973 133.884ZM230.621 140.926C228.675 140.926 227.415 139.89 227.331 138.21H228.703C228.787 139.246 229.459 139.806 230.607 139.806C231.881 139.806 232.553 139.12 232.553 137.846V136.502C232.133 137.398 231.293 137.916 230.285 137.916C228.437 137.916 227.121 136.39 227.121 134.206C227.121 131.994 228.381 130.51 230.243 130.51C231.307 130.51 232.147 131.028 232.651 131.966V130.65H233.967V137.818C233.967 139.764 232.721 140.926 230.621 140.926ZM228.549 134.206C228.549 135.746 229.305 136.684 230.537 136.684C231.741 136.684 232.553 135.718 232.553 134.248C232.553 132.708 231.755 131.728 230.537 131.728C229.319 131.728 228.549 132.68 228.549 134.206ZM246.312 135.13C246.312 136.88 244.912 138.21 242.476 138.21C240.054 138.21 238.584 136.88 238.458 134.878H240.026C240.096 136.152 240.908 136.978 242.448 136.978C243.722 136.978 244.674 136.376 244.674 135.34C244.674 134.5 244.128 134.08 242.966 133.828L241.51 133.548C240.096 133.268 238.808 132.554 238.808 130.846C238.808 129.152 240.292 127.878 242.378 127.878C244.464 127.878 246.046 129.152 246.172 131.154H244.604C244.52 129.95 243.652 129.11 242.392 129.11C241.09 129.11 240.376 129.88 240.376 130.748C240.376 131.7 241.202 132.036 242.14 132.232L243.624 132.526C245.346 132.876 246.312 133.632 246.312 135.13ZM255.067 134.36C255.067 136.6 253.779 138.21 251.791 138.21C250.783 138.21 249.929 137.706 249.397 136.81V140.772H247.983V130.65H249.299V132.008C249.831 131.056 250.741 130.51 251.791 130.51C253.765 130.51 255.067 132.12 255.067 134.36ZM253.597 134.36C253.597 132.694 252.715 131.756 251.497 131.756C250.321 131.756 249.397 132.694 249.397 134.36C249.397 135.998 250.307 136.95 251.497 136.95C252.715 136.95 253.597 136.026 253.597 134.36ZM259.553 138.21C257.411 138.21 255.969 136.656 255.969 134.318C255.969 132.12 257.467 130.51 259.511 130.51C261.723 130.51 263.193 132.302 262.941 134.71H257.411C257.523 136.222 258.279 137.104 259.525 137.104C260.575 137.104 261.303 136.53 261.541 135.564H262.941C262.577 137.216 261.303 138.21 259.553 138.21ZM259.483 131.574C258.349 131.574 257.579 132.386 257.425 133.772H261.443C261.373 132.4 260.631 131.574 259.483 131.574ZM265.858 133.884V138.07H264.444V130.65H265.76V131.882C266.264 131.056 267.104 130.51 268.126 130.51C269.652 130.51 270.66 131.49 270.66 133.268V138.07H269.246V133.744C269.246 132.47 268.686 131.756 267.636 131.756C266.67 131.756 265.858 132.568 265.858 133.884ZM272.006 134.36C272.006 132.106 273.294 130.51 275.296 130.51C276.29 130.51 277.158 131.014 277.676 131.924V128.018H279.09V138.07H277.774V136.74C277.242 137.678 276.346 138.21 275.296 138.21C273.294 138.21 272.006 136.586 272.006 134.36ZM273.476 134.36C273.476 136.012 274.344 136.95 275.576 136.95C276.78 136.95 277.676 135.97 277.676 134.332C277.676 132.666 276.752 131.756 275.576 131.756C274.344 131.756 273.476 132.68 273.476 134.36ZM290.141 130.65L287.355 138.07H285.815L283.029 130.65H284.555L286.613 136.446L288.699 130.65H290.141ZM296.861 135.858C296.861 137.314 295.727 138.21 293.753 138.21C291.793 138.21 290.631 137.244 290.491 135.648H291.849C291.905 136.572 292.647 137.146 293.781 137.146C294.775 137.146 295.433 136.796 295.433 136.096C295.433 135.48 295.055 135.214 294.131 135.032L292.927 134.808C291.555 134.542 290.785 133.842 290.785 132.722C290.785 131.42 291.919 130.51 293.641 130.51C295.419 130.51 296.623 131.462 296.749 132.988H295.391C295.307 132.092 294.649 131.574 293.655 131.574C292.759 131.574 292.157 131.952 292.157 132.596C292.157 133.198 292.535 133.478 293.431 133.646L294.691 133.884C296.161 134.15 296.861 134.794 296.861 135.858ZM308.555 135.186C308.555 137.02 307.211 138.07 305.125 138.07H301.443V128.018H304.929C306.959 128.018 308.177 128.956 308.177 130.65C308.177 131.602 307.603 132.414 306.637 132.834C307.883 133.184 308.555 134.038 308.555 135.186ZM304.831 129.25H302.857V132.274H304.831C306.049 132.274 306.707 131.7 306.707 130.762C306.707 129.824 306.049 129.25 304.831 129.25ZM305.027 133.506H302.857V136.838H305.027C306.343 136.838 307.085 136.208 307.085 135.144C307.085 134.122 306.343 133.506 305.027 133.506ZM314.851 135.018V130.65H316.265V138.07H314.949V136.894C314.557 137.664 313.689 138.21 312.681 138.21C311.183 138.21 310.147 137.328 310.147 135.424V130.65H311.561V135.144C311.561 136.432 312.205 136.964 313.129 136.964C314.081 136.964 314.851 136.18 314.851 135.018ZM317.697 134.36C317.697 132.106 318.985 130.51 320.987 130.51C321.981 130.51 322.849 131.014 323.367 131.924V128.018H324.781V138.07H323.465V136.74C322.933 137.678 322.037 138.21 320.987 138.21C318.985 138.21 317.697 136.586 317.697 134.36ZM319.167 134.36C319.167 136.012 320.035 136.95 321.267 136.95C322.471 136.95 323.367 135.97 323.367 134.332C323.367 132.666 322.443 131.756 321.267 131.756C320.035 131.756 319.167 132.68 319.167 134.36ZM329.715 140.926C327.769 140.926 326.509 139.89 326.425 138.21H327.797C327.881 139.246 328.553 139.806 329.701 139.806C330.975 139.806 331.647 139.12 331.647 137.846V136.502C331.227 137.398 330.387 137.916 329.379 137.916C327.531 137.916 326.215 136.39 326.215 134.206C326.215 131.994 327.475 130.51 329.337 130.51C330.401 130.51 331.241 131.028 331.745 131.966V130.65H333.061V137.818C333.061 139.764 331.815 140.926 329.715 140.926ZM327.643 134.206C327.643 135.746 328.399 136.684 329.631 136.684C330.835 136.684 331.647 135.718 331.647 134.248C331.647 132.708 330.849 131.728 329.631 131.728C328.413 131.728 327.643 132.68 327.643 134.206ZM338.07 138.21C335.928 138.21 334.486 136.656 334.486 134.318C334.486 132.12 335.984 130.51 338.028 130.51C340.24 130.51 341.71 132.302 341.458 134.71H335.928C336.04 136.222 336.796 137.104 338.042 137.104C339.092 137.104 339.82 136.53 340.058 135.564H341.458C341.094 137.216 339.82 138.21 338.07 138.21ZM338 131.574C336.866 131.574 336.096 132.386 335.942 133.772H339.96C339.89 132.4 339.148 131.574 338 131.574ZM347.12 136.698V137.944C346.686 138.14 346.308 138.21 345.86 138.21C344.488 138.21 343.536 137.468 343.536 135.83V131.854H341.898V130.65H343.536V128.452H344.95V130.65H347.19V131.854H344.95V135.508C344.95 136.53 345.44 136.894 346.196 136.894C346.532 136.894 346.826 136.838 347.12 136.698ZM356.169 138.07L352.991 130.384V138.07H351.577V128.018H353.467L356.841 136.18L360.201 128.018H362.105V138.07H360.677V130.37L357.485 138.07H356.169ZM367.275 138.21C365.175 138.21 363.635 136.558 363.635 134.36C363.635 132.162 365.175 130.51 367.275 130.51C369.375 130.51 370.915 132.162 370.915 134.36C370.915 136.558 369.375 138.21 367.275 138.21ZM367.275 136.964C368.493 136.964 369.459 135.984 369.459 134.36C369.459 132.736 368.493 131.77 367.275 131.77C366.057 131.77 365.105 132.736 365.105 134.36C365.105 135.984 366.057 136.964 367.275 136.964ZM373.77 133.884V138.07H372.356V130.65H373.672V131.882C374.176 131.056 375.016 130.51 376.038 130.51C377.564 130.51 378.572 131.49 378.572 133.268V138.07H377.158V133.744C377.158 132.47 376.598 131.756 375.548 131.756C374.582 131.756 373.77 132.568 373.77 133.884ZM384.608 136.698V137.944C384.174 138.14 383.796 138.21 383.348 138.21C381.976 138.21 381.024 137.468 381.024 135.83V131.854H379.386V130.65H381.024V128.452H382.438V130.65H384.678V131.854H382.438V135.508C382.438 136.53 382.928 136.894 383.684 136.894C384.02 136.894 384.314 136.838 384.608 136.698ZM387.442 133.884V138.07H386.028V128.018H387.442V131.84C387.932 131.042 388.688 130.51 389.71 130.51C391.236 130.51 392.244 131.49 392.244 133.268V138.07H390.83V133.744C390.83 132.47 390.27 131.756 389.22 131.756C388.254 131.756 387.442 132.568 387.442 133.884ZM395.55 138.07H394.122V128.018H395.55V138.07ZM403.672 130.65L399.962 140.772H398.422L399.486 137.972L396.56 130.65H398.086L400.242 136.306L402.244 130.65H403.672ZM415.064 135.13C415.064 136.88 413.664 138.21 411.228 138.21C408.806 138.21 407.336 136.88 407.21 134.878H408.778C408.848 136.152 409.66 136.978 411.2 136.978C412.474 136.978 413.426 136.376 413.426 135.34C413.426 134.5 412.88 134.08 411.718 133.828L410.262 133.548C408.848 133.268 407.56 132.554 407.56 130.846C407.56 129.152 409.044 127.878 411.13 127.878C413.216 127.878 414.798 129.152 414.924 131.154H413.356C413.272 129.95 412.404 129.11 411.144 129.11C409.842 129.11 409.128 129.88 409.128 130.748C409.128 131.7 409.954 132.036 410.892 132.232L412.376 132.526C414.098 132.876 415.064 133.632 415.064 135.13ZM423.819 134.36C423.819 136.6 422.531 138.21 420.543 138.21C419.535 138.21 418.681 137.706 418.149 136.81V140.772H416.735V130.65H418.051V132.008C418.583 131.056 419.493 130.51 420.543 130.51C422.517 130.51 423.819 132.12 423.819 134.36ZM422.349 134.36C422.349 132.694 421.467 131.756 420.249 131.756C419.073 131.756 418.149 132.694 418.149 134.36C418.149 135.998 419.059 136.95 420.249 136.95C421.467 136.95 422.349 136.026 422.349 134.36ZM428.304 138.21C426.162 138.21 424.72 136.656 424.72 134.318C424.72 132.12 426.218 130.51 428.262 130.51C430.474 130.51 431.944 132.302 431.692 134.71H426.162C426.274 136.222 427.03 137.104 428.276 137.104C429.326 137.104 430.054 136.53 430.292 135.564H431.692C431.328 137.216 430.054 138.21 428.304 138.21ZM428.234 131.574C427.1 131.574 426.33 132.386 426.176 133.772H430.194C430.124 132.4 429.382 131.574 428.234 131.574ZM434.61 133.884V138.07H433.196V130.65H434.512V131.882C435.016 131.056 435.856 130.51 436.878 130.51C438.404 130.51 439.412 131.49 439.412 133.268V138.07H437.998V133.744C437.998 132.47 437.438 131.756 436.388 131.756C435.422 131.756 434.61 132.568 434.61 133.884ZM440.758 134.36C440.758 132.106 442.046 130.51 444.048 130.51C445.042 130.51 445.91 131.014 446.428 131.924V128.018H447.842V138.07H446.526V136.74C445.994 137.678 445.098 138.21 444.048 138.21C442.046 138.21 440.758 136.586 440.758 134.36ZM442.228 134.36C442.228 136.012 443.096 136.95 444.328 136.95C445.532 136.95 446.428 135.97 446.428 134.332C446.428 132.666 445.504 131.756 444.328 131.756C443.096 131.756 442.228 132.68 442.228 134.36Z" fill="#121212"/>
<path d="M35.0039 435.138H512.145" stroke="#01012E" stroke-opacity="0.08"/>
<path d="M35.0039 378.022H512.145" stroke="#01012E" stroke-opacity="0.08"/>
<path d="M35.0039 320.907H512.145" stroke="#01012E" stroke-opacity="0.08"/>
<path d="M35.0039 263.792H512.145" stroke="#01012E" stroke-opacity="0.08"/>
<path d="M35.0039 206.676L512.145 206.676" stroke="#01012E" stroke-opacity="0.08"/>
<path d="M45.2034 448.343H46.2602V454.582C46.2602 455.138 46.1579 455.612 45.9534 456.001C45.7488 456.39 45.4605 456.685 45.0883 456.887C44.7162 457.089 44.2773 457.19 43.7716 457.19C43.2943 457.19 42.8696 457.103 42.4974 456.93C42.1253 456.754 41.8327 456.504 41.6196 456.18C41.4065 455.856 41.3 455.471 41.3 455.025H42.3398C42.3398 455.272 42.4008 455.488 42.523 455.673C42.648 455.854 42.8184 455.996 43.0344 456.099C43.2503 456.201 43.496 456.252 43.7716 456.252C44.0756 456.252 44.3341 456.188 44.5471 456.06C44.7602 455.933 44.9221 455.745 45.0329 455.498C45.1466 455.248 45.2034 454.942 45.2034 454.582V448.343ZM50.1679 457.224C49.7531 457.224 49.3767 457.146 49.0386 456.989C48.7006 456.83 48.4321 456.602 48.2332 456.303C48.0344 456.002 47.9349 455.638 47.9349 455.212C47.9349 454.837 48.0088 454.533 48.1565 454.3C48.3042 454.065 48.5017 453.88 48.7488 453.746C48.996 453.613 49.2687 453.513 49.567 453.448C49.8682 453.38 50.1707 453.326 50.4747 453.286C50.8724 453.235 51.1949 453.197 51.442 453.171C51.692 453.143 51.8738 453.096 51.9875 453.031C52.104 452.965 52.1622 452.852 52.1622 452.69V452.656C52.1622 452.235 52.0471 451.908 51.817 451.675C51.5898 451.442 51.2446 451.326 50.7815 451.326C50.3014 451.326 49.925 451.431 49.6523 451.641C49.3795 451.852 49.1878 452.076 49.077 452.315L48.1224 451.974C48.2929 451.576 48.5202 451.266 48.8042 451.045C49.0912 450.82 49.4037 450.664 49.7417 450.576C50.0827 450.485 50.4179 450.44 50.7474 450.44C50.9577 450.44 51.1991 450.465 51.4719 450.516C51.7474 450.565 52.0131 450.665 52.2687 450.819C52.5273 450.972 52.7417 451.204 52.9122 451.513C53.0827 451.823 53.1679 452.238 53.1679 452.758V457.07H52.1622V456.184H52.1111C52.0429 456.326 51.9292 456.478 51.7702 456.64C51.6111 456.802 51.3994 456.94 51.1352 457.053C50.871 457.167 50.5486 457.224 50.1679 457.224ZM50.3213 456.32C50.719 456.32 51.0542 456.242 51.327 456.086C51.6025 455.93 51.8099 455.728 51.9491 455.481C52.0912 455.234 52.1622 454.974 52.1622 454.701V453.781C52.1196 453.832 52.0258 453.879 51.8809 453.921C51.7389 453.961 51.5741 453.996 51.3866 454.028C51.202 454.056 51.0216 454.082 50.8454 454.104C50.6721 454.124 50.5315 454.141 50.4236 454.156C50.1622 454.19 49.9179 454.245 49.6906 454.322C49.4662 454.396 49.2844 454.508 49.1452 454.658C49.0088 454.806 48.9406 455.008 48.9406 455.263C48.9406 455.613 49.0699 455.877 49.3284 456.056C49.5898 456.232 49.9207 456.32 50.3213 456.32ZM56.0091 453.133V457.07H55.0035V450.525H55.9751V451.548H56.0603C56.2137 451.215 56.4466 450.948 56.7591 450.746C57.0716 450.542 57.4751 450.44 57.9694 450.44C58.4126 450.44 58.8003 450.531 59.1327 450.712C59.4651 450.891 59.7236 451.164 59.9083 451.531C60.093 451.894 60.1853 452.354 60.1853 452.911V457.07H59.1796V452.979C59.1796 452.465 59.0461 452.065 58.779 451.778C58.512 451.488 58.1455 451.343 57.6796 451.343C57.3586 451.343 57.0716 451.413 56.8188 451.552C56.5688 451.691 56.3714 451.894 56.2265 452.161C56.0816 452.428 56.0091 452.752 56.0091 453.133Z" fill="#60646C"/>
<path d="M81.0109 457.07V448.343H86.2439V449.281H82.0677V452.229H85.8518V453.167H82.0677V457.07H81.0109ZM90.1814 457.207C89.5507 457.207 89.0067 457.067 88.5493 456.789C88.0947 456.508 87.7439 456.116 87.4967 455.613C87.2524 455.107 87.1302 454.519 87.1302 453.849C87.1302 453.178 87.2524 452.587 87.4967 452.076C87.7439 451.562 88.0876 451.161 88.528 450.874C88.9711 450.585 89.4882 450.44 90.0791 450.44C90.42 450.44 90.7567 450.496 91.089 450.61C91.4214 450.724 91.724 450.908 91.9967 451.164C92.2694 451.417 92.4868 451.752 92.6487 452.17C92.8106 452.587 92.8916 453.102 92.8916 453.712V454.138H87.8461V453.269H91.8689C91.8689 452.9 91.795 452.57 91.6473 452.281C91.5024 451.991 91.295 451.762 91.0251 451.594C90.7581 451.427 90.4427 451.343 90.0791 451.343C89.6785 451.343 89.3319 451.442 89.0393 451.641C88.7496 451.837 88.5265 452.093 88.3703 452.408C88.214 452.724 88.1359 453.062 88.1359 453.423V454.002C88.1359 454.496 88.2211 454.915 88.3916 455.259C88.5649 455.6 88.805 455.86 89.1118 456.039C89.4186 456.215 89.7751 456.303 90.1814 456.303C90.4456 456.303 90.6842 456.266 90.8973 456.192C91.1132 456.116 91.2993 456.002 91.4555 455.852C91.6118 455.698 91.7325 455.508 91.8177 455.281L92.7893 455.553C92.6871 455.883 92.5152 456.173 92.2737 456.423C92.0322 456.67 91.7339 456.863 91.3788 457.002C91.0237 457.138 90.6246 457.207 90.1814 457.207ZM94.5578 457.07V448.343H95.5635V451.565H95.6487C95.7226 451.451 95.8248 451.306 95.9555 451.13C96.089 450.951 96.2794 450.792 96.5265 450.653C96.7765 450.511 97.1146 450.44 97.5407 450.44C98.0919 450.44 98.5777 450.577 98.9981 450.853C99.4186 451.129 99.7467 451.519 99.9825 452.025C100.218 452.531 100.336 453.127 100.336 453.815C100.336 454.508 100.218 455.109 99.9825 455.617C99.7467 456.123 99.42 456.515 99.0024 456.793C98.5848 457.069 98.1032 457.207 97.5578 457.207C97.1373 457.207 96.8007 457.137 96.5479 456.998C96.295 456.856 96.1004 456.695 95.964 456.516C95.8277 456.335 95.7226 456.184 95.6487 456.065H95.5294V457.07H94.5578ZM95.5464 453.798C95.5464 454.292 95.6189 454.728 95.7638 455.106C95.9086 455.481 96.1203 455.775 96.3987 455.988C96.6771 456.198 97.018 456.303 97.4214 456.303C97.8419 456.303 98.1927 456.192 98.474 455.971C98.7581 455.746 98.9711 455.445 99.1132 455.067C99.2581 454.687 99.3305 454.263 99.3305 453.798C99.3305 453.337 99.2595 452.923 99.1175 452.553C98.9782 452.181 98.7666 451.887 98.4825 451.671C98.2013 451.452 97.8476 451.343 97.4214 451.343C97.0123 451.343 96.6686 451.447 96.3902 451.654C96.1118 451.859 95.9015 452.146 95.7595 452.515C95.6175 452.881 95.5464 453.309 95.5464 453.798Z" fill="#60646C"/>
<path d="M199.57 448.343H200.831L203.797 455.587H203.899L206.865 448.343H208.126V457.07H207.138V450.44H207.052L204.325 457.07H203.371L200.643 450.44H200.558V457.07H199.57V448.343ZM212.035 457.224C211.62 457.224 211.244 457.146 210.906 456.989C210.568 456.83 210.299 456.602 210.1 456.303C209.902 456.002 209.802 455.638 209.802 455.212C209.802 454.837 209.876 454.533 210.024 454.3C210.171 454.065 210.369 453.88 210.616 453.746C210.863 453.613 211.136 453.513 211.434 453.448C211.735 453.38 212.038 453.326 212.342 453.286C212.74 453.235 213.062 453.197 213.309 453.171C213.559 453.143 213.741 453.096 213.855 453.031C213.971 452.965 214.029 452.852 214.029 452.69V452.656C214.029 452.235 213.914 451.908 213.684 451.675C213.457 451.442 213.112 451.326 212.649 451.326C212.169 451.326 211.792 451.431 211.519 451.641C211.247 451.852 211.055 452.076 210.944 452.315L209.99 451.974C210.16 451.576 210.387 451.266 210.671 451.045C210.958 450.82 211.271 450.664 211.609 450.576C211.95 450.485 212.285 450.44 212.615 450.44C212.825 450.44 213.066 450.465 213.339 450.516C213.615 450.565 213.88 450.665 214.136 450.819C214.394 450.972 214.609 451.204 214.779 451.513C214.95 451.823 215.035 452.238 215.035 452.758V457.07H214.029V456.184H213.978C213.91 456.326 213.796 456.478 213.637 456.64C213.478 456.802 213.267 456.94 213.002 457.053C212.738 457.167 212.416 457.224 212.035 457.224ZM212.188 456.32C212.586 456.32 212.921 456.242 213.194 456.086C213.47 455.93 213.677 455.728 213.816 455.481C213.958 455.234 214.029 454.974 214.029 454.701V453.781C213.987 453.832 213.893 453.879 213.748 453.921C213.606 453.961 213.441 453.996 213.254 454.028C213.069 454.056 212.889 454.082 212.713 454.104C212.539 454.124 212.399 454.141 212.291 454.156C212.029 454.19 211.785 454.245 211.558 454.322C211.333 454.396 211.152 454.508 211.012 454.658C210.876 454.806 210.808 455.008 210.808 455.263C210.808 455.613 210.937 455.877 211.196 456.056C211.457 456.232 211.788 456.32 212.188 456.32ZM217.284 459.525C217.114 459.525 216.962 459.511 216.828 459.482C216.695 459.457 216.602 459.431 216.551 459.406L216.807 458.519C217.051 458.582 217.267 458.604 217.454 458.587C217.642 458.57 217.808 458.487 217.953 458.336C218.101 458.188 218.236 457.948 218.358 457.616L218.545 457.104L216.125 450.525H217.216L219.023 455.741H219.091L220.898 450.525H221.989L219.21 458.025C219.085 458.363 218.93 458.643 218.746 458.864C218.561 459.089 218.347 459.255 218.102 459.363C217.861 459.471 217.588 459.525 217.284 459.525Z" fill="#60646C"/>
<path d="M120.56 448.343H121.821L124.787 455.587H124.889L127.855 448.343H129.117V457.07H128.128V450.44H128.043L125.315 457.07H124.361L121.634 450.44H121.548V457.07H120.56V448.343ZM133.025 457.224C132.611 457.224 132.234 457.146 131.896 456.989C131.558 456.83 131.29 456.602 131.091 456.303C130.892 456.002 130.792 455.638 130.792 455.212C130.792 454.837 130.866 454.533 131.014 454.3C131.162 454.065 131.359 453.88 131.606 453.746C131.853 453.613 132.126 453.513 132.424 453.448C132.726 453.38 133.028 453.326 133.332 453.286C133.73 453.235 134.052 453.197 134.299 453.171C134.549 453.143 134.731 453.096 134.845 453.031C134.961 452.965 135.02 452.852 135.02 452.69V452.656C135.02 452.235 134.905 451.908 134.674 451.675C134.447 451.442 134.102 451.326 133.639 451.326C133.159 451.326 132.782 451.431 132.51 451.641C132.237 451.852 132.045 452.076 131.934 452.315L130.98 451.974C131.15 451.576 131.378 451.266 131.662 451.045C131.949 450.82 132.261 450.664 132.599 450.576C132.94 450.485 133.275 450.44 133.605 450.44C133.815 450.44 134.057 450.465 134.329 450.516C134.605 450.565 134.87 450.665 135.126 450.819C135.385 450.972 135.599 451.204 135.77 451.513C135.94 451.823 136.025 452.238 136.025 452.758V457.07H135.02V456.184H134.968C134.9 456.326 134.787 456.478 134.628 456.64C134.468 456.802 134.257 456.94 133.993 457.053C133.728 457.167 133.406 457.224 133.025 457.224ZM133.179 456.32C133.576 456.32 133.912 456.242 134.184 456.086C134.46 455.93 134.667 455.728 134.807 455.481C134.949 455.234 135.02 454.974 135.02 454.701V453.781C134.977 453.832 134.883 453.879 134.738 453.921C134.596 453.961 134.432 453.996 134.244 454.028C134.059 454.056 133.879 454.082 133.703 454.104C133.53 454.124 133.389 454.141 133.281 454.156C133.02 454.19 132.775 454.245 132.548 454.322C132.324 454.396 132.142 454.508 132.003 454.658C131.866 454.806 131.798 455.008 131.798 455.263C131.798 455.613 131.927 455.877 132.186 456.056C132.447 456.232 132.778 456.32 133.179 456.32ZM137.861 457.07V450.525H138.832V451.513H138.901C139.02 451.19 139.236 450.927 139.548 450.725C139.861 450.523 140.213 450.423 140.605 450.423C140.679 450.423 140.771 450.424 140.882 450.427C140.993 450.43 141.077 450.434 141.134 450.44V451.462C141.1 451.454 141.021 451.441 140.899 451.424C140.78 451.404 140.653 451.394 140.52 451.394C140.202 451.394 139.918 451.461 139.668 451.594C139.421 451.725 139.225 451.907 139.08 452.14C138.938 452.37 138.867 452.633 138.867 452.928V457.07H137.861Z" fill="#60646C"/>
<path d="M161.926 457.07H160.818L164.022 448.343H165.113L168.318 457.07H167.21L164.602 449.724H164.533L161.926 457.07ZM162.335 453.661H166.801V454.599H162.335V453.661ZM169.541 459.525V450.525H170.512V451.565H170.631C170.705 451.451 170.808 451.306 170.938 451.13C171.072 450.951 171.262 450.792 171.509 450.653C171.759 450.511 172.097 450.44 172.524 450.44C173.075 450.44 173.56 450.577 173.981 450.853C174.401 451.129 174.729 451.519 174.965 452.025C175.201 452.531 175.319 453.127 175.319 453.815C175.319 454.508 175.201 455.109 174.965 455.617C174.729 456.123 174.403 456.515 173.985 456.793C173.568 457.069 173.086 457.207 172.541 457.207C172.12 457.207 171.783 457.137 171.531 456.998C171.278 456.856 171.083 456.695 170.947 456.516C170.81 456.335 170.705 456.184 170.631 456.065H170.546V459.525H169.541ZM170.529 453.798C170.529 454.292 170.602 454.728 170.747 455.106C170.891 455.481 171.103 455.775 171.381 455.988C171.66 456.198 172.001 456.303 172.404 456.303C172.825 456.303 173.176 456.192 173.457 455.971C173.741 455.746 173.954 455.445 174.096 455.067C174.241 454.687 174.313 454.263 174.313 453.798C174.313 453.337 174.242 452.923 174.1 452.553C173.961 452.181 173.749 451.887 173.465 451.671C173.184 451.452 172.83 451.343 172.404 451.343C171.995 451.343 171.651 451.447 171.373 451.654C171.095 451.859 170.884 452.146 170.742 452.515C170.6 452.881 170.529 453.309 170.529 453.798ZM176.853 457.07V450.525H177.825V451.513H177.893C178.012 451.19 178.228 450.927 178.541 450.725C178.853 450.523 179.205 450.423 179.597 450.423C179.671 450.423 179.764 450.424 179.874 450.427C179.985 450.43 180.069 450.434 180.126 450.44V451.462C180.092 451.454 180.014 451.441 179.891 451.424C179.772 451.404 179.646 451.394 179.512 451.394C179.194 451.394 178.91 451.461 178.66 451.594C178.413 451.725 178.217 451.907 178.072 452.14C177.93 452.37 177.859 452.633 177.859 452.928V457.07H176.853Z" fill="#60646C"/>
<path d="M242.811 449.013H243.868V455.252C243.868 455.809 243.765 456.282 243.561 456.671C243.356 457.06 243.068 457.356 242.696 457.557C242.323 457.759 241.885 457.86 241.379 457.86C240.902 457.86 240.477 457.773 240.105 457.6C239.733 457.424 239.44 457.174 239.227 456.85C239.014 456.526 238.907 456.141 238.907 455.695H239.947C239.947 455.942 240.008 456.158 240.13 456.343C240.255 456.525 240.426 456.667 240.642 456.769C240.858 456.871 241.103 456.923 241.379 456.923C241.683 456.923 241.941 456.859 242.154 456.731C242.368 456.603 242.529 456.415 242.64 456.168C242.754 455.918 242.811 455.613 242.811 455.252V449.013ZM249.974 455.065V451.195H250.98V457.741H249.974V456.633H249.906C249.752 456.965 249.514 457.248 249.19 457.481C248.866 457.711 248.457 457.826 247.963 457.826C247.554 457.826 247.19 457.736 246.872 457.557C246.554 457.376 246.304 457.103 246.122 456.739C245.94 456.373 245.849 455.911 245.849 455.354V451.195H246.855V455.286C246.855 455.763 246.988 456.144 247.255 456.428C247.525 456.712 247.869 456.854 248.287 456.854C248.537 456.854 248.791 456.79 249.049 456.663C249.311 456.535 249.529 456.339 249.706 456.075C249.885 455.81 249.974 455.474 249.974 455.065ZM253.827 453.803V457.741H252.822V451.195H253.793V452.218H253.879C254.032 451.886 254.265 451.619 254.577 451.417C254.89 451.212 255.293 451.11 255.788 451.11C256.231 451.11 256.619 451.201 256.951 451.383C257.283 451.562 257.542 451.834 257.727 452.201C257.911 452.565 258.004 453.025 258.004 453.582V457.741H256.998V453.65C256.998 453.136 256.864 452.735 256.597 452.448C256.33 452.158 255.964 452.013 255.498 452.013C255.177 452.013 254.89 452.083 254.637 452.222C254.387 452.361 254.19 452.565 254.045 452.832C253.9 453.099 253.827 453.423 253.827 453.803Z" fill="#60646C"/>
<path d="M284.069 449.013H285.125V455.252C285.125 455.809 285.023 456.282 284.819 456.671C284.614 457.06 284.326 457.356 283.953 457.557C283.581 457.759 283.142 457.86 282.637 457.86C282.159 457.86 281.735 457.773 281.363 457.6C280.99 457.424 280.698 457.174 280.485 456.85C280.272 456.526 280.165 456.141 280.165 455.695H281.205C281.205 455.942 281.266 456.158 281.388 456.343C281.513 456.525 281.684 456.667 281.899 456.769C282.115 456.871 282.361 456.923 282.637 456.923C282.941 456.923 283.199 456.859 283.412 456.731C283.625 456.603 283.787 456.415 283.898 456.168C284.012 455.918 284.069 455.613 284.069 455.252V449.013ZM291.232 455.065V451.195H292.238V457.741H291.232V456.633H291.164C291.01 456.965 290.772 457.248 290.448 457.481C290.124 457.711 289.715 457.826 289.22 457.826C288.811 457.826 288.448 457.736 288.13 457.557C287.811 457.376 287.561 457.103 287.38 456.739C287.198 456.373 287.107 455.911 287.107 455.354V451.195H288.113V455.286C288.113 455.763 288.246 456.144 288.513 456.428C288.783 456.712 289.127 456.854 289.544 456.854C289.794 456.854 290.049 456.79 290.307 456.663C290.569 456.535 290.787 456.339 290.963 456.075C291.142 455.81 291.232 455.474 291.232 455.065ZM295.085 449.013V457.741H294.08V449.013H295.085Z" fill="#60646C"/>
<path d="M320.056 457.741H318.948L322.153 449.013H323.244L326.448 457.741H325.34L322.732 450.394H322.664L320.056 457.741ZM320.465 454.332H324.931V455.269H320.465V454.332ZM331.796 455.065V451.195H332.802V457.741H331.796V456.633H331.728C331.575 456.965 331.336 457.248 331.012 457.481C330.688 457.711 330.279 457.826 329.785 457.826C329.376 457.826 329.012 457.736 328.694 457.557C328.376 457.376 328.126 457.103 327.944 456.739C327.762 456.373 327.671 455.911 327.671 455.354V451.195H328.677V455.286C328.677 455.763 328.811 456.144 329.078 456.428C329.347 456.712 329.691 456.854 330.109 456.854C330.359 456.854 330.613 456.79 330.872 456.663C331.133 456.535 331.352 456.339 331.528 456.075C331.707 455.81 331.796 455.474 331.796 455.065ZM337.286 460.332C336.8 460.332 336.383 460.269 336.033 460.144C335.684 460.022 335.393 459.86 335.16 459.658C334.929 459.459 334.746 459.246 334.61 459.019L335.411 458.457C335.502 458.576 335.617 458.712 335.756 458.866C335.895 459.022 336.086 459.157 336.327 459.271C336.572 459.387 336.891 459.445 337.286 459.445C337.814 459.445 338.251 459.317 338.594 459.062C338.938 458.806 339.11 458.405 339.11 457.86V456.53H339.025C338.951 456.65 338.846 456.798 338.709 456.974C338.576 457.147 338.383 457.302 338.13 457.438C337.88 457.572 337.542 457.638 337.116 457.638C336.587 457.638 336.113 457.513 335.692 457.263C335.275 457.013 334.944 456.65 334.699 456.173C334.458 455.695 334.337 455.116 334.337 454.434C334.337 453.763 334.455 453.18 334.691 452.682C334.927 452.182 335.255 451.796 335.675 451.523C336.096 451.248 336.581 451.11 337.133 451.11C337.559 451.11 337.897 451.181 338.147 451.323C338.4 451.462 338.593 451.621 338.726 451.8C338.863 451.977 338.968 452.121 339.042 452.235H339.144V451.195H340.116V457.928C340.116 458.491 339.988 458.948 339.732 459.3C339.479 459.655 339.138 459.915 338.709 460.08C338.283 460.248 337.809 460.332 337.286 460.332ZM337.252 456.735C337.655 456.735 337.996 456.643 338.275 456.458C338.553 456.273 338.765 456.008 338.91 455.661C339.054 455.315 339.127 454.9 339.127 454.417C339.127 453.945 339.056 453.529 338.914 453.168C338.772 452.807 338.562 452.525 338.283 452.32C338.005 452.116 337.661 452.013 337.252 452.013C336.826 452.013 336.471 452.121 336.187 452.337C335.905 452.553 335.694 452.843 335.552 453.207C335.412 453.57 335.343 453.974 335.343 454.417C335.343 454.871 335.414 455.273 335.556 455.623C335.701 455.969 335.914 456.242 336.195 456.441C336.479 456.637 336.831 456.735 337.252 456.735Z" fill="#60646C"/>
<path d="M361.514 451.525C361.463 451.093 361.255 450.758 360.892 450.519C360.528 450.281 360.082 450.161 359.554 450.161C359.167 450.161 358.829 450.224 358.54 450.349C358.253 450.474 358.028 450.646 357.866 450.864C357.707 451.083 357.628 451.332 357.628 451.61C357.628 451.843 357.683 452.043 357.794 452.211C357.907 452.376 358.052 452.513 358.228 452.624C358.405 452.732 358.589 452.822 358.782 452.893C358.976 452.961 359.153 453.016 359.315 453.059L360.201 453.298C360.429 453.357 360.682 453.44 360.96 453.545C361.241 453.65 361.51 453.793 361.765 453.975C362.024 454.154 362.237 454.384 362.405 454.665C362.572 454.947 362.656 455.292 362.656 455.701C362.656 456.173 362.532 456.599 362.285 456.979C362.041 457.36 361.683 457.663 361.211 457.887C360.743 458.112 360.173 458.224 359.503 458.224C358.878 458.224 358.336 458.123 357.879 457.921C357.425 457.719 357.067 457.438 356.805 457.077C356.547 456.717 356.4 456.298 356.366 455.82H357.457C357.486 456.15 357.596 456.423 357.79 456.638C357.986 456.852 358.233 457.011 358.531 457.116C358.832 457.218 359.156 457.269 359.503 457.269C359.906 457.269 360.268 457.204 360.589 457.073C360.91 456.94 361.165 456.755 361.352 456.519C361.54 456.281 361.633 456.002 361.633 455.684C361.633 455.394 361.552 455.158 361.39 454.977C361.228 454.795 361.015 454.647 360.751 454.533C360.487 454.42 360.201 454.32 359.895 454.235L358.821 453.928C358.139 453.732 357.599 453.452 357.201 453.089C356.804 452.725 356.605 452.249 356.605 451.661C356.605 451.173 356.737 450.746 357.001 450.383C357.268 450.016 357.626 449.732 358.075 449.531C358.527 449.326 359.031 449.224 359.588 449.224C360.15 449.224 360.65 449.325 361.088 449.526C361.525 449.725 361.872 449.998 362.128 450.344C362.386 450.691 362.523 451.085 362.537 451.525H361.514ZM367.002 458.207C366.371 458.207 365.827 458.067 365.369 457.789C364.915 457.508 364.564 457.116 364.317 456.613C364.073 456.107 363.95 455.519 363.95 454.849C363.95 454.178 364.073 453.587 364.317 453.076C364.564 452.562 364.908 452.161 365.348 451.874C365.791 451.585 366.308 451.44 366.899 451.44C367.24 451.44 367.577 451.496 367.909 451.61C368.242 451.724 368.544 451.908 368.817 452.164C369.09 452.417 369.307 452.752 369.469 453.17C369.631 453.587 369.712 454.102 369.712 454.712V455.138H364.666V454.269H368.689C368.689 453.9 368.615 453.57 368.467 453.281C368.323 452.991 368.115 452.762 367.845 452.594C367.578 452.427 367.263 452.343 366.899 452.343C366.499 452.343 366.152 452.442 365.86 452.641C365.57 452.837 365.347 453.093 365.19 453.408C365.034 453.724 364.956 454.062 364.956 454.423V455.002C364.956 455.496 365.041 455.915 365.212 456.259C365.385 456.6 365.625 456.86 365.932 457.039C366.239 457.215 366.595 457.303 367.002 457.303C367.266 457.303 367.504 457.266 367.717 457.192C367.933 457.116 368.119 457.002 368.276 456.852C368.432 456.698 368.553 456.508 368.638 456.281L369.61 456.553C369.507 456.883 369.335 457.173 369.094 457.423C368.852 457.67 368.554 457.863 368.199 458.002C367.844 458.138 367.445 458.207 367.002 458.207ZM371.242 460.525V451.525H372.213V452.565H372.333C372.406 452.451 372.509 452.306 372.639 452.13C372.773 451.951 372.963 451.792 373.21 451.653C373.46 451.511 373.798 451.44 374.225 451.44C374.776 451.44 375.262 451.577 375.682 451.853C376.102 452.129 376.431 452.519 376.666 453.025C376.902 453.531 377.02 454.127 377.02 454.815C377.02 455.508 376.902 456.109 376.666 456.617C376.431 457.123 376.104 457.515 375.686 457.793C375.269 458.069 374.787 458.207 374.242 458.207C373.821 458.207 373.485 458.137 373.232 457.998C372.979 457.856 372.784 457.695 372.648 457.516C372.512 457.335 372.406 457.184 372.333 457.065H372.247V460.525H371.242ZM372.23 454.798C372.23 455.292 372.303 455.728 372.448 456.106C372.592 456.481 372.804 456.775 373.083 456.988C373.361 457.198 373.702 457.303 374.105 457.303C374.526 457.303 374.877 457.192 375.158 456.971C375.442 456.746 375.655 456.445 375.797 456.067C375.942 455.687 376.014 455.263 376.014 454.798C376.014 454.337 375.943 453.923 375.801 453.553C375.662 453.181 375.45 452.887 375.166 452.671C374.885 452.452 374.531 452.343 374.105 452.343C373.696 452.343 373.352 452.447 373.074 452.654C372.796 452.859 372.585 453.146 372.443 453.515C372.301 453.881 372.23 454.309 372.23 454.798ZM381.401 451.525V452.377H378.009V451.525H381.401ZM378.997 449.957H380.003V456.195C380.003 456.479 380.044 456.692 380.127 456.835C380.212 456.974 380.32 457.067 380.45 457.116C380.584 457.161 380.725 457.184 380.872 457.184C380.983 457.184 381.074 457.178 381.145 457.167C381.216 457.153 381.273 457.141 381.315 457.133L381.52 458.036C381.452 458.062 381.357 458.087 381.235 458.113C381.112 458.141 380.958 458.156 380.77 458.156C380.486 458.156 380.208 458.094 379.935 457.972C379.665 457.85 379.44 457.664 379.262 457.414C379.085 457.164 378.997 456.849 378.997 456.468V449.957Z" fill="#60646C"/>
<path d="M412.198 453.377C412.198 454.298 412.032 455.093 411.7 455.763C411.367 456.434 410.912 456.951 410.332 457.315C409.752 457.678 409.09 457.86 408.346 457.86C407.602 457.86 406.94 457.678 406.36 457.315C405.781 456.951 405.325 456.434 404.992 455.763C404.66 455.093 404.494 454.298 404.494 453.377C404.494 452.457 404.66 451.661 404.992 450.991C405.325 450.32 405.781 449.803 406.36 449.44C406.94 449.076 407.602 448.894 408.346 448.894C409.09 448.894 409.752 449.076 410.332 449.44C410.912 449.803 411.367 450.32 411.7 450.991C412.032 451.661 412.198 452.457 412.198 453.377ZM411.176 453.377C411.176 452.621 411.049 451.984 410.796 451.464C410.546 450.944 410.207 450.55 409.778 450.283C409.352 450.016 408.875 449.883 408.346 449.883C407.818 449.883 407.339 450.016 406.91 450.283C406.484 450.55 406.144 450.944 405.892 451.464C405.642 451.984 405.517 452.621 405.517 453.377C405.517 454.133 405.642 454.771 405.892 455.29C406.144 455.81 406.484 456.204 406.91 456.471C407.339 456.738 407.818 456.871 408.346 456.871C408.875 456.871 409.352 456.738 409.778 456.471C410.207 456.204 410.546 455.81 410.796 455.29C411.049 454.771 411.176 454.133 411.176 453.377ZM416.498 457.877C415.885 457.877 415.356 457.732 414.913 457.442C414.47 457.153 414.129 456.754 413.89 456.245C413.652 455.736 413.532 455.155 413.532 454.502C413.532 453.837 413.654 453.251 413.899 452.742C414.146 452.231 414.49 451.832 414.93 451.545C415.373 451.255 415.89 451.11 416.481 451.11C416.941 451.11 417.356 451.195 417.725 451.366C418.095 451.536 418.397 451.775 418.633 452.082C418.869 452.388 419.015 452.746 419.072 453.155H418.066C417.99 452.857 417.819 452.593 417.555 452.363C417.294 452.13 416.941 452.013 416.498 452.013C416.106 452.013 415.762 452.116 415.467 452.32C415.174 452.522 414.946 452.807 414.781 453.177C414.619 453.543 414.538 453.974 414.538 454.468C414.538 454.974 414.617 455.414 414.777 455.789C414.938 456.164 415.166 456.455 415.458 456.663C415.754 456.87 416.1 456.974 416.498 456.974C416.76 456.974 416.997 456.928 417.21 456.837C417.423 456.746 417.603 456.616 417.751 456.445C417.899 456.275 418.004 456.07 418.066 455.832H419.072C419.015 456.218 418.875 456.566 418.65 456.876C418.429 457.182 418.135 457.427 417.768 457.609C417.404 457.788 416.981 457.877 416.498 457.877ZM423.389 451.195V452.048H419.997V451.195H423.389ZM420.985 449.627H421.991V455.866C421.991 456.15 422.032 456.363 422.115 456.505C422.2 456.644 422.308 456.738 422.438 456.786C422.572 456.832 422.713 456.854 422.86 456.854C422.971 456.854 423.062 456.849 423.133 456.837C423.204 456.823 423.261 456.812 423.304 456.803L423.508 457.707C423.44 457.732 423.345 457.758 423.223 457.783C423.1 457.812 422.946 457.826 422.758 457.826C422.474 457.826 422.196 457.765 421.923 457.643C421.653 457.521 421.429 457.334 421.25 457.084C421.073 456.834 420.985 456.519 420.985 456.138V449.627Z" fill="#60646C"/>
<path d="M447.073 449.343V458.07H446.05L441.294 451.218H441.209V458.07H440.152V449.343H441.175L445.948 456.212H446.033V449.343H447.073ZM451.71 458.207C451.119 458.207 450.601 458.066 450.155 457.785C449.711 457.504 449.365 457.11 449.115 456.604C448.868 456.099 448.744 455.508 448.744 454.832C448.744 454.15 448.868 453.555 449.115 453.046C449.365 452.538 449.711 452.143 450.155 451.862C450.601 451.58 451.119 451.44 451.71 451.44C452.301 451.44 452.818 451.58 453.261 451.862C453.707 452.143 454.054 452.538 454.301 453.046C454.551 453.555 454.676 454.15 454.676 454.832C454.676 455.508 454.551 456.099 454.301 456.604C454.054 457.11 453.707 457.504 453.261 457.785C452.818 458.066 452.301 458.207 451.71 458.207ZM451.71 457.303C452.159 457.303 452.528 457.188 452.818 456.958C453.108 456.728 453.322 456.425 453.461 456.05C453.601 455.675 453.67 455.269 453.67 454.832C453.67 454.394 453.601 453.987 453.461 453.609C453.322 453.231 453.108 452.925 452.818 452.692C452.528 452.46 452.159 452.343 451.71 452.343C451.261 452.343 450.892 452.46 450.602 452.692C450.312 452.925 450.098 453.231 449.959 453.609C449.819 453.987 449.75 454.394 449.75 454.832C449.75 455.269 449.819 455.675 449.959 456.05C450.098 456.425 450.312 456.728 450.602 456.958C450.892 457.188 451.261 457.303 451.71 457.303ZM461.329 451.525L458.909 458.07H457.886L455.465 451.525H456.556L458.363 456.741H458.431L460.238 451.525H461.329Z" fill="#60646C"/>
<path d="M481.769 457.741H479.076V449.013H481.888C482.735 449.013 483.459 449.188 484.062 449.538C484.664 449.884 485.126 450.383 485.447 451.033C485.768 451.681 485.928 452.457 485.928 453.36C485.928 454.269 485.766 455.052 485.442 455.708C485.119 456.361 484.647 456.864 484.028 457.217C483.408 457.566 482.655 457.741 481.769 457.741ZM480.133 456.803H481.701C482.423 456.803 483.021 456.664 483.495 456.386C483.969 456.107 484.323 455.711 484.556 455.197C484.789 454.682 484.905 454.07 484.905 453.36C484.905 452.655 484.79 452.049 484.56 451.54C484.33 451.029 483.986 450.637 483.529 450.364C483.072 450.089 482.502 449.951 481.82 449.951H480.133V456.803ZM490.309 457.877C489.678 457.877 489.134 457.738 488.677 457.459C488.222 457.178 487.871 456.786 487.624 456.283C487.38 455.778 487.258 455.19 487.258 454.519C487.258 453.849 487.38 453.258 487.624 452.746C487.871 452.232 488.215 451.832 488.655 451.545C489.099 451.255 489.616 451.11 490.207 451.11C490.548 451.11 490.884 451.167 491.217 451.28C491.549 451.394 491.851 451.579 492.124 451.834C492.397 452.087 492.614 452.423 492.776 452.84C492.938 453.258 493.019 453.772 493.019 454.383V454.809H487.974V453.94H491.996C491.996 453.57 491.923 453.241 491.775 452.951C491.63 452.661 491.423 452.432 491.153 452.265C490.886 452.097 490.57 452.013 490.207 452.013C489.806 452.013 489.459 452.113 489.167 452.312C488.877 452.508 488.654 452.763 488.498 453.079C488.342 453.394 488.263 453.732 488.263 454.093V454.673C488.263 455.167 488.349 455.586 488.519 455.93C488.692 456.271 488.932 456.53 489.239 456.709C489.546 456.886 489.903 456.974 490.309 456.974C490.573 456.974 490.812 456.937 491.025 456.863C491.241 456.786 491.427 456.673 491.583 456.522C491.739 456.369 491.86 456.178 491.945 455.951L492.917 456.224C492.815 456.553 492.643 456.843 492.401 457.093C492.16 457.34 491.861 457.533 491.506 457.673C491.151 457.809 490.752 457.877 490.309 457.877ZM497.208 457.877C496.594 457.877 496.066 457.732 495.623 457.442C495.18 457.153 494.839 456.754 494.6 456.245C494.361 455.736 494.242 455.155 494.242 454.502C494.242 453.837 494.364 453.251 494.609 452.742C494.856 452.231 495.2 451.832 495.64 451.545C496.083 451.255 496.6 451.11 497.191 451.11C497.651 451.11 498.066 451.195 498.435 451.366C498.805 451.536 499.107 451.775 499.343 452.082C499.579 452.388 499.725 452.746 499.782 453.155H498.776C498.7 452.857 498.529 452.593 498.265 452.363C498.003 452.13 497.651 452.013 497.208 452.013C496.816 452.013 496.472 452.116 496.177 452.32C495.884 452.522 495.655 452.807 495.491 453.177C495.329 453.543 495.248 453.974 495.248 454.468C495.248 454.974 495.327 455.414 495.486 455.789C495.648 456.164 495.876 456.455 496.168 456.663C496.464 456.87 496.81 456.974 497.208 456.974C497.469 456.974 497.707 456.928 497.92 456.837C498.133 456.746 498.313 456.616 498.461 456.445C498.609 456.275 498.714 456.07 498.776 455.832H499.782C499.725 456.218 499.584 456.566 499.36 456.876C499.138 457.182 498.844 457.427 498.478 457.609C498.114 457.788 497.691 457.877 497.208 457.877Z" fill="#60646C"/>
<path d="M28.0143 504.439H26.6983V501.583H23.8563V500.365H26.6983V497.537H28.0143V500.365H30.8563V501.583H28.0143V504.439ZM38.8245 504.453V505.713H32.7065V504.901L35.6605 501.709C36.7805 500.491 37.2145 499.833 37.2145 498.979C37.2145 498.041 36.5565 497.383 35.5905 497.383C34.5405 497.383 33.8405 498.069 33.8405 499.119H32.4545C32.4545 497.369 33.7705 496.109 35.6465 496.109C37.4105 496.109 38.6985 497.257 38.6985 498.811C38.6985 499.889 38.2925 500.645 36.7385 502.297L34.8345 504.453H38.8245ZM42.8034 502.045C41.0954 502.045 39.8634 500.729 39.8634 499.105C39.8634 497.481 41.0954 496.165 42.8034 496.165C44.5254 496.165 45.7574 497.481 45.7574 499.105C45.7574 500.729 44.5254 502.045 42.8034 502.045ZM44.8194 505.713H43.6574L49.0054 496.249H50.1674L44.8194 505.713ZM42.8034 501.023C43.7554 501.023 44.5674 500.351 44.5674 499.105C44.5674 497.845 43.7554 497.187 42.8034 497.187C41.8654 497.187 41.0534 497.845 41.0534 499.105C41.0534 500.351 41.8654 501.023 42.8034 501.023ZM51.1754 505.825C49.4534 505.825 48.2354 504.523 48.2354 502.885C48.2354 501.261 49.4534 499.945 51.1754 499.945C52.8974 499.945 54.1154 501.261 54.1154 502.885C54.1154 504.523 52.8974 505.825 51.1754 505.825ZM51.1754 504.803C52.1274 504.803 52.9254 504.131 52.9254 502.885C52.9254 501.639 52.1274 500.981 51.1754 500.981C50.2374 500.981 49.4114 501.639 49.4114 502.885C49.4114 504.131 50.2374 504.803 51.1754 504.803ZM65.4709 505.713L64.5609 503.221H60.2209L59.2969 505.713H57.7429L61.5929 495.661H63.2869L67.1089 505.713H65.4709ZM62.4049 497.341L60.6829 501.975H64.0989L62.4049 497.341ZM73.9818 498.293L71.1958 505.713H69.6558L66.8698 498.293H68.3958L70.4538 504.089L72.5398 498.293H73.9818ZM77.8054 505.853C75.6634 505.853 74.2214 504.299 74.2214 501.961C74.2214 499.763 75.7194 498.153 77.7634 498.153C79.9754 498.153 81.4454 499.945 81.1934 502.353H75.6634C75.7754 503.865 76.5314 504.747 77.7774 504.747C78.8274 504.747 79.5554 504.173 79.7934 503.207H81.1934C80.8294 504.859 79.5554 505.853 77.8054 505.853ZM77.7354 499.217C76.6014 499.217 75.8314 500.029 75.6774 501.415H79.6954C79.6254 500.043 78.8834 499.217 77.7354 499.217ZM84.1108 501.919V505.713H82.6968V498.293H84.0128V499.861C84.5308 498.839 85.6508 498.195 86.8688 498.195V499.665C85.2728 499.581 84.1108 500.281 84.1108 501.919ZM92.4818 505.713V504.565C92.0198 505.391 91.1938 505.853 90.1018 505.853C88.5618 505.853 87.5538 504.971 87.5538 503.613C87.5538 502.157 88.7158 501.401 90.9278 501.401C91.3618 501.401 91.7118 501.415 92.3138 501.485V500.939C92.3138 499.875 91.7398 499.273 90.7598 499.273C89.7238 499.273 89.0938 499.889 89.0518 500.925H87.7638C87.8338 499.259 89.0238 498.153 90.7598 498.153C92.5938 498.153 93.6578 499.189 93.6578 500.953V505.713H92.4818ZM88.8978 503.571C88.8978 504.341 89.4718 504.845 90.3818 504.845C91.5718 504.845 92.3138 504.103 92.3138 502.969V502.367C91.7678 502.297 91.3758 502.283 91.0118 502.283C89.5978 502.283 88.8978 502.703 88.8978 503.571ZM98.5164 508.569C96.5704 508.569 95.3104 507.533 95.2264 505.853H96.5984C96.6824 506.889 97.3544 507.449 98.5024 507.449C99.7764 507.449 100.448 506.763 100.448 505.489V504.145C100.028 505.041 99.1884 505.559 98.1804 505.559C96.3324 505.559 95.0164 504.033 95.0164 501.849C95.0164 499.637 96.2764 498.153 98.1384 498.153C99.2024 498.153 100.042 498.671 100.546 499.609V498.293H101.862V505.461C101.862 507.407 100.616 508.569 98.5164 508.569ZM96.4444 501.849C96.4444 503.389 97.2004 504.327 98.4324 504.327C99.6364 504.327 100.448 503.361 100.448 501.891C100.448 500.351 99.6504 499.371 98.4324 499.371C97.2144 499.371 96.4444 500.323 96.4444 501.849ZM106.872 505.853C104.73 505.853 103.288 504.299 103.288 501.961C103.288 499.763 104.786 498.153 106.83 498.153C109.042 498.153 110.512 499.945 110.26 502.353H104.73C104.842 503.865 105.598 504.747 106.844 504.747C107.894 504.747 108.622 504.173 108.86 503.207H110.26C109.896 504.859 108.622 505.853 106.872 505.853ZM106.802 499.217C105.668 499.217 104.898 500.029 104.744 501.415H108.762C108.692 500.043 107.95 499.217 106.802 499.217ZM116.103 505.713H114.689V498.293H116.005V499.525C116.509 498.671 117.307 498.153 118.329 498.153C119.421 498.153 120.247 498.713 120.583 499.693C121.101 498.741 121.955 498.153 123.089 498.153C124.615 498.153 125.595 499.147 125.595 500.911V505.713H124.181V501.359C124.181 500.127 123.635 499.399 122.599 499.399C121.633 499.399 120.849 500.211 120.849 501.457V505.713H119.435V501.359C119.435 500.127 118.889 499.399 117.853 499.399C116.873 499.399 116.103 500.211 116.103 501.457V505.713ZM130.594 505.853C128.494 505.853 126.954 504.201 126.954 502.003C126.954 499.805 128.494 498.153 130.594 498.153C132.694 498.153 134.234 499.805 134.234 502.003C134.234 504.201 132.694 505.853 130.594 505.853ZM130.594 504.607C131.812 504.607 132.778 503.627 132.778 502.003C132.778 500.379 131.812 499.413 130.594 499.413C129.376 499.413 128.424 500.379 128.424 502.003C128.424 503.627 129.376 504.607 130.594 504.607ZM137.089 501.527V505.713H135.675V498.293H136.991V499.525C137.495 498.699 138.335 498.153 139.357 498.153C140.883 498.153 141.891 499.133 141.891 500.911V505.713H140.477V501.387C140.477 500.113 139.917 499.399 138.867 499.399C137.901 499.399 137.089 500.211 137.089 501.527ZM147.928 504.341V505.587C147.494 505.783 147.116 505.853 146.668 505.853C145.296 505.853 144.344 505.111 144.344 503.473V499.497H142.706V498.293H144.344V496.095H145.758V498.293H147.998V499.497H145.758V503.151C145.758 504.173 146.248 504.537 147.004 504.537C147.34 504.537 147.634 504.481 147.928 504.341ZM150.761 501.527V505.713H149.347V495.661H150.761V499.483C151.251 498.685 152.007 498.153 153.029 498.153C154.555 498.153 155.563 499.133 155.563 500.911V505.713H154.149V501.387C154.149 500.113 153.589 499.399 152.539 499.399C151.573 499.399 150.761 500.211 150.761 501.527ZM163.335 508.569C161.389 508.569 160.129 507.533 160.045 505.853H161.417C161.501 506.889 162.173 507.449 163.321 507.449C164.595 507.449 165.267 506.763 165.267 505.489V504.145C164.847 505.041 164.007 505.559 162.999 505.559C161.151 505.559 159.835 504.033 159.835 501.849C159.835 499.637 161.095 498.153 162.957 498.153C164.021 498.153 164.861 498.671 165.365 499.609V498.293H166.681V505.461C166.681 507.407 165.435 508.569 163.335 508.569ZM161.263 501.849C161.263 503.389 162.019 504.327 163.251 504.327C164.455 504.327 165.267 503.361 165.267 501.891C165.267 500.351 164.469 499.371 163.251 499.371C162.033 499.371 161.263 500.323 161.263 501.849ZM170.052 501.919V505.713H168.638V498.293H169.954V499.861C170.472 498.839 171.592 498.195 172.81 498.195V499.665C171.214 499.581 170.052 500.281 170.052 501.919ZM177.01 505.853C174.91 505.853 173.37 504.201 173.37 502.003C173.37 499.805 174.91 498.153 177.01 498.153C179.11 498.153 180.65 499.805 180.65 502.003C180.65 504.201 179.11 505.853 177.01 505.853ZM177.01 504.607C178.228 504.607 179.194 503.627 179.194 502.003C179.194 500.379 178.228 499.413 177.01 499.413C175.792 499.413 174.84 500.379 174.84 502.003C174.84 503.627 175.792 504.607 177.01 504.607ZM188.059 505.713L186.379 500.197L184.685 505.713H183.257L181.115 498.293H182.501L183.999 503.697L185.679 498.293H187.079L188.731 503.711L190.229 498.293H191.629L189.473 505.713H188.059ZM197.242 504.341V505.587C196.808 505.783 196.43 505.853 195.982 505.853C194.61 505.853 193.658 505.111 193.658 503.473V499.497H192.02V498.293H193.658V496.095H195.072V498.293H197.312V499.497H195.072V503.151C195.072 504.173 195.562 504.537 196.318 504.537C196.654 504.537 196.948 504.481 197.242 504.341ZM200.076 501.527V505.713H198.662V495.661H200.076V499.483C200.566 498.685 201.322 498.153 202.344 498.153C203.87 498.153 204.878 499.133 204.878 500.911V505.713H203.464V501.387C203.464 500.113 202.904 499.399 201.854 499.399C200.888 499.399 200.076 500.211 200.076 501.527ZM211.403 496.571C211.403 497.103 210.983 497.509 210.381 497.509C209.779 497.509 209.345 497.103 209.345 496.571C209.345 496.025 209.779 495.633 210.381 495.633C210.983 495.633 211.403 496.025 211.403 496.571ZM211.095 505.713H209.681V498.293H211.095V505.713ZM214.472 501.527V505.713H213.058V498.293H214.374V499.525C214.878 498.699 215.718 498.153 216.74 498.153C218.266 498.153 219.274 499.133 219.274 500.911V505.713H217.86V501.387C217.86 500.113 217.3 499.399 216.25 499.399C215.284 499.399 214.472 500.211 214.472 501.527ZM225.8 496.571C225.8 497.103 225.38 497.509 224.778 497.509C224.176 497.509 223.742 497.103 223.742 496.571C223.742 496.025 224.176 495.633 224.778 495.633C225.38 495.633 225.8 496.025 225.8 496.571ZM225.492 505.713H224.078V498.293H225.492V505.713ZM228.869 501.527V505.713H227.455V498.293H228.771V499.525C229.275 498.699 230.115 498.153 231.137 498.153C232.663 498.153 233.671 499.133 233.671 500.911V505.713H232.257V501.387C232.257 500.113 231.697 499.399 230.647 499.399C229.681 499.399 228.869 500.211 228.869 501.527ZM237.607 505.713H236.193V499.497H234.555V498.293H236.193V497.747C236.193 496.319 236.963 495.535 238.363 495.535C238.783 495.535 239.119 495.605 239.399 495.717V496.865C239.175 496.767 238.923 496.739 238.671 496.739C237.999 496.739 237.607 497.047 237.607 497.761V498.293H239.679V499.497H237.607V505.713ZM242.171 505.713H240.743V495.661H242.171V505.713ZM248.768 502.661V498.293H250.182V505.713H248.866V504.537C248.474 505.307 247.606 505.853 246.598 505.853C245.1 505.853 244.064 504.971 244.064 503.067V498.293H245.478V502.787C245.478 504.075 246.122 504.607 247.046 504.607C247.998 504.607 248.768 503.823 248.768 502.661ZM255.198 505.853C253.056 505.853 251.614 504.299 251.614 501.961C251.614 499.763 253.112 498.153 255.156 498.153C257.368 498.153 258.838 499.945 258.586 502.353H253.056C253.168 503.865 253.924 504.747 255.17 504.747C256.22 504.747 256.948 504.173 257.186 503.207H258.586C258.222 504.859 256.948 505.853 255.198 505.853ZM255.128 499.217C253.994 499.217 253.224 500.029 253.07 501.415H257.088C257.018 500.043 256.276 499.217 255.128 499.217ZM261.503 501.527V505.713H260.089V498.293H261.405V499.525C261.909 498.699 262.749 498.153 263.771 498.153C265.297 498.153 266.305 499.133 266.305 500.911V505.713H264.891V501.387C264.891 500.113 264.331 499.399 263.281 499.399C262.315 499.399 261.503 500.211 261.503 501.527ZM271.109 505.867C269.079 505.867 267.651 504.271 267.651 502.003C267.651 499.763 269.107 498.153 271.109 498.153C272.943 498.153 274.273 499.371 274.539 501.303H273.055C272.901 500.113 272.159 499.399 271.123 499.399C269.905 499.399 269.107 500.435 269.107 502.003C269.107 503.585 269.905 504.607 271.123 504.607C272.173 504.607 272.901 503.907 273.069 502.703H274.539C274.287 504.663 272.971 505.867 271.109 505.867ZM278.946 505.853C276.804 505.853 275.362 504.299 275.362 501.961C275.362 499.763 276.86 498.153 278.904 498.153C281.116 498.153 282.586 499.945 282.334 502.353H276.804C276.916 503.865 277.672 504.747 278.918 504.747C279.968 504.747 280.696 504.173 280.934 503.207H282.334C281.97 504.859 280.696 505.853 278.946 505.853ZM278.876 499.217C277.742 499.217 276.972 500.029 276.818 501.415H280.836C280.766 500.043 280.024 499.217 278.876 499.217ZM285.251 501.919V505.713H283.837V498.293H285.153V499.861C285.671 498.839 286.791 498.195 288.009 498.195V499.665C286.413 499.581 285.251 500.281 285.251 501.919ZM293.468 505.713H292.054V498.293H293.37V499.525C293.874 498.671 294.672 498.153 295.694 498.153C296.786 498.153 297.612 498.713 297.948 499.693C298.466 498.741 299.32 498.153 300.454 498.153C301.98 498.153 302.96 499.147 302.96 500.911V505.713H301.546V501.359C301.546 500.127 301 499.399 299.964 499.399C298.998 499.399 298.214 500.211 298.214 501.457V505.713H296.8V501.359C296.8 500.127 296.254 499.399 295.218 499.399C294.238 499.399 293.468 500.211 293.468 501.457V505.713ZM309.345 505.713V504.565C308.883 505.391 308.057 505.853 306.965 505.853C305.425 505.853 304.417 504.971 304.417 503.613C304.417 502.157 305.579 501.401 307.791 501.401C308.225 501.401 308.575 501.415 309.177 501.485V500.939C309.177 499.875 308.603 499.273 307.623 499.273C306.587 499.273 305.957 499.889 305.915 500.925H304.627C304.697 499.259 305.887 498.153 307.623 498.153C309.457 498.153 310.521 499.189 310.521 500.953V505.713H309.345ZM305.761 503.571C305.761 504.341 306.335 504.845 307.245 504.845C308.435 504.845 309.177 504.103 309.177 502.969V502.367C308.631 502.297 308.239 502.283 307.875 502.283C306.461 502.283 305.761 502.703 305.761 503.571ZM313.826 501.919V505.713H312.412V498.293H313.728V499.861C314.246 498.839 315.366 498.195 316.584 498.195V499.665C314.988 499.581 313.826 500.281 313.826 501.919ZM319.117 505.713H317.703V495.661H319.117V501.611L322.295 498.293H323.961L320.531 501.891L324.283 505.713H322.463L319.117 502.199V505.713ZM327.973 505.853C325.831 505.853 324.389 504.299 324.389 501.961C324.389 499.763 325.887 498.153 327.931 498.153C330.143 498.153 331.613 499.945 331.361 502.353H325.831C325.943 503.865 326.699 504.747 327.945 504.747C328.995 504.747 329.723 504.173 329.961 503.207H331.361C330.997 504.859 329.723 505.853 327.973 505.853ZM327.903 499.217C326.769 499.217 325.999 500.029 325.845 501.415H329.863C329.793 500.043 329.051 499.217 327.903 499.217ZM337.023 504.341V505.587C336.589 505.783 336.211 505.853 335.763 505.853C334.391 505.853 333.439 505.111 333.439 503.473V499.497H331.801V498.293H333.439V496.095H334.853V498.293H337.093V499.497H334.853V503.151C334.853 504.173 335.343 504.537 336.099 504.537C336.435 504.537 336.729 504.481 337.023 504.341ZM347.249 503.501C347.249 504.957 346.115 505.853 344.141 505.853C342.181 505.853 341.019 504.887 340.879 503.291H342.237C342.293 504.215 343.035 504.789 344.169 504.789C345.163 504.789 345.821 504.439 345.821 503.739C345.821 503.123 345.443 502.857 344.519 502.675L343.315 502.451C341.943 502.185 341.173 501.485 341.173 500.365C341.173 499.063 342.307 498.153 344.029 498.153C345.807 498.153 347.011 499.105 347.137 500.631H345.779C345.695 499.735 345.037 499.217 344.043 499.217C343.147 499.217 342.545 499.595 342.545 500.239C342.545 500.841 342.923 501.121 343.819 501.289L345.079 501.527C346.549 501.793 347.249 502.437 347.249 503.501ZM355.877 502.003C355.877 504.243 354.589 505.853 352.601 505.853C351.593 505.853 350.739 505.349 350.207 504.453V508.415H348.793V498.293H350.109V499.651C350.641 498.699 351.551 498.153 352.601 498.153C354.575 498.153 355.877 499.763 355.877 502.003ZM354.407 502.003C354.407 500.337 353.525 499.399 352.307 499.399C351.131 499.399 350.207 500.337 350.207 502.003C350.207 503.641 351.117 504.593 352.307 504.593C353.525 504.593 354.407 503.669 354.407 502.003ZM360.362 505.853C358.22 505.853 356.778 504.299 356.778 501.961C356.778 499.763 358.276 498.153 360.32 498.153C362.532 498.153 364.002 499.945 363.75 502.353H358.22C358.332 503.865 359.088 504.747 360.334 504.747C361.384 504.747 362.112 504.173 362.35 503.207H363.75C363.386 504.859 362.112 505.853 360.362 505.853ZM360.292 499.217C359.158 499.217 358.388 500.029 358.234 501.415H362.252C362.182 500.043 361.44 499.217 360.292 499.217ZM366.667 501.527V505.713H365.253V498.293H366.569V499.525C367.073 498.699 367.913 498.153 368.935 498.153C370.461 498.153 371.469 499.133 371.469 500.911V505.713H370.055V501.387C370.055 500.113 369.495 499.399 368.445 499.399C367.479 499.399 366.667 500.211 366.667 501.527ZM372.815 502.003C372.815 499.749 374.103 498.153 376.105 498.153C377.099 498.153 377.967 498.657 378.485 499.567V495.661H379.899V505.713H378.583V504.383C378.051 505.321 377.155 505.853 376.105 505.853C374.103 505.853 372.815 504.229 372.815 502.003ZM374.285 502.003C374.285 503.655 375.153 504.593 376.385 504.593C377.589 504.593 378.485 503.613 378.485 501.975C378.485 500.309 377.561 499.399 376.385 499.399C375.153 499.399 374.285 500.323 374.285 502.003Z" fill="#1C2024"/>
<path d="M397.403 497.379L391.736 503.046L388.403 499.712L384.069 504.046" stroke="#1C2024" stroke-width="1.33333" stroke-linecap="round" stroke-linejoin="round"/>
<path d="M393.403 497.379H397.403V501.379" stroke="#1C2024" stroke-width="1.33333" stroke-linecap="round" stroke-linejoin="round"/>
<path d="M41.9541 344.07H50.9541V435.07H41.9541V344.07Z" fill="#E9A2A2"/>
<path d="M81.9541 308.07H90.9541V435.07H81.9541V308.07Z" fill="#E9A2A2"/>
<path d="M200.954 308.07H209.954V435.07H200.954V308.07Z" fill="#E9A2A2"/>
<path d="M239.954 395.041H248.954V435.07H239.954V395.041Z" fill="#E9A2A2"/>
<path d="M279.954 416.871H288.954V435.07H279.954V416.871Z" fill="#E9A2A2"/>
<path d="M319.954 350.327H328.954V435.071H319.954V350.327Z" fill="#E9A2A2"/>
<path d="M359.868 240.127H368.868V435.07H359.868V240.127Z" fill="#E9A2A2"/>
<path d="M399.954 308.07H408.954V435.07H399.954V308.07Z" fill="#E9A2A2"/>
<path d="M439.954 388.838H448.954V435.071H439.954V388.838Z" fill="#E9A2A2"/>
<path d="M479.954 308.07H488.954V435.07H479.954V308.07Z" fill="#E9A2A2"/>
<path d="M120.954 387.07H129.954V435.07H120.954V387.07Z" fill="#E9A2A2"/>
<path d="M160.954 387.07H169.954V435.07H160.954V387.07Z" fill="#E9A2A2"/>
<path d="M50.9541 240.07H59.9541L59.9541 435.07H50.9541L50.9541 240.07Z" fill="#8E22EA"/>
<path d="M90.9541 344.07H98.9541V435.07H90.9541V344.07Z" fill="#8E22EA"/>
<path d="M209.954 274.551H217.954V435.07H209.954V274.551Z" fill="#8E22EA"/>
<path d="M248.954 323.09H257.954V435.071H248.954V323.09Z" fill="#8E22EA"/>
<path d="M288.955 317.062H297.955V435.07H288.955V317.062Z" fill="#8E22EA"/>
<path d="M328.954 279.07H337.954V435.07H328.954V279.07Z" fill="#8E22EA"/>
<path d="M368.954 240.07H377.954V435.07H368.954V240.07Z" fill="#8E22EA"/>
<path d="M408.954 253.679H417.954V435.07H408.954V253.679Z" fill="#8E22EA"/>
<path d="M448.954 336.07H457.954V435.07H448.954V336.07Z" fill="#8E22EA"/>
<path d="M488.954 269.289H497.954V435.07H488.954V269.289Z" fill="#8E22EA"/>
<path d="M129.954 367.07H138.954V435.07H129.954V367.07Z" fill="#8E22EA"/>
<path d="M169.954 367.07H178.954V435.07H169.954V367.07Z" fill="#8E22EA"/>
<rect x="19.9541" y="151.07" width="16" height="16" rx="4" fill="#E9A2A2"/>
<path d="M44.0141 163.07L41.7441 157.58V163.07H40.7341V155.89H42.0841L44.4941 161.72L46.8941 155.89H48.2541V163.07H47.2341V157.57L44.9541 163.07H44.0141ZM52.9364 163.07V162.25C52.6064 162.84 52.0164 163.17 51.2364 163.17C50.1364 163.17 49.4164 162.54 49.4164 161.57C49.4164 160.53 50.2464 159.99 51.8264 159.99C52.1364 159.99 52.3864 160 52.8164 160.05V159.66C52.8164 158.9 52.4064 158.47 51.7064 158.47C50.9664 158.47 50.5164 158.91 50.4864 159.65H49.5664C49.6164 158.46 50.4664 157.67 51.7064 157.67C53.0164 157.67 53.7764 158.41 53.7764 159.67V163.07H52.9364ZM50.3764 161.54C50.3764 162.09 50.7864 162.45 51.4364 162.45C52.2864 162.45 52.8164 161.92 52.8164 161.11V160.68C52.4264 160.63 52.1464 160.62 51.8864 160.62C50.8764 160.62 50.3764 160.92 50.3764 161.54ZM56.1368 160.36V163.07H55.1268V157.77H56.0668V158.89C56.4368 158.16 57.2368 157.7 58.1068 157.7V158.75C56.9668 158.69 56.1368 159.19 56.1368 160.36ZM59.9161 163.07H58.9061V155.89H59.9161V160.14L62.1861 157.77H63.3761L60.9261 160.34L63.6061 163.07H62.3061L59.9161 160.56V163.07ZM66.2423 163.17C64.7123 163.17 63.6823 162.06 63.6823 160.39C63.6823 158.82 64.7523 157.67 66.2123 157.67C67.7923 157.67 68.8423 158.95 68.6623 160.67H64.7123C64.7923 161.75 65.3323 162.38 66.2223 162.38C66.9723 162.38 67.4923 161.97 67.6623 161.28H68.6623C68.4023 162.46 67.4923 163.17 66.2423 163.17ZM66.1923 158.43C65.3823 158.43 64.8323 159.01 64.7223 160H67.5923C67.5423 159.02 67.0123 158.43 66.1923 158.43ZM72.7066 162.09V162.98C72.3966 163.12 72.1266 163.17 71.8066 163.17C70.8266 163.17 70.1466 162.64 70.1466 161.47V158.63H68.9766V157.77H70.1466V156.2H71.1566V157.77H72.7566V158.63H71.1566V161.24C71.1566 161.97 71.5066 162.23 72.0466 162.23C72.2866 162.23 72.4966 162.19 72.7066 162.09ZM74.9505 156.54C74.9505 156.92 74.6505 157.21 74.2205 157.21C73.7905 157.21 73.4805 156.92 73.4805 156.54C73.4805 156.15 73.7905 155.87 74.2205 155.87C74.6505 155.87 74.9505 156.15 74.9505 156.54ZM74.7305 163.07H73.7205V157.77H74.7305V163.07ZM77.1426 160.08V163.07H76.1326V157.77H77.0726V158.65C77.4326 158.06 78.0326 157.67 78.7626 157.67C79.8526 157.67 80.5726 158.37 80.5726 159.64V163.07H79.5626V159.98C79.5626 159.07 79.1626 158.56 78.4126 158.56C77.7226 158.56 77.1426 159.14 77.1426 160.08ZM84.0339 165.11C82.6439 165.11 81.7439 164.37 81.6839 163.17H82.6639C82.7239 163.91 83.2039 164.31 84.0239 164.31C84.9339 164.31 85.4139 163.82 85.4139 162.91V161.95C85.1139 162.59 84.5139 162.96 83.7939 162.96C82.4739 162.96 81.5339 161.87 81.5339 160.31C81.5339 158.73 82.4339 157.67 83.7639 157.67C84.5239 157.67 85.1239 158.04 85.4839 158.71V157.77H86.4239V162.89C86.4239 164.28 85.5339 165.11 84.0339 165.11ZM82.5539 160.31C82.5539 161.41 83.0939 162.08 83.9739 162.08C84.8339 162.08 85.4139 161.39 85.4139 160.34C85.4139 159.24 84.8439 158.54 83.9739 158.54C83.1039 158.54 82.5539 159.22 82.5539 160.31ZM95.2419 160.97C95.2419 162.22 94.2419 163.17 92.5019 163.17C90.7719 163.17 89.7219 162.22 89.6319 160.79H90.7519C90.8019 161.7 91.3819 162.29 92.4819 162.29C93.3919 162.29 94.0719 161.86 94.0719 161.12C94.0719 160.52 93.6819 160.22 92.8519 160.04L91.8119 159.84C90.8019 159.64 89.8819 159.13 89.8819 157.91C89.8819 156.7 90.9419 155.79 92.4319 155.79C93.9219 155.79 95.0519 156.7 95.1419 158.13H94.0219C93.9619 157.27 93.3419 156.67 92.4419 156.67C91.5119 156.67 91.0019 157.22 91.0019 157.84C91.0019 158.52 91.5919 158.76 92.2619 158.9L93.3219 159.11C94.5519 159.36 95.2419 159.9 95.2419 160.97ZM101.495 160.42C101.495 162.02 100.575 163.17 99.1554 163.17C98.4354 163.17 97.8254 162.81 97.4454 162.17V165H96.4354V157.77H97.3754V158.74C97.7554 158.06 98.4054 157.67 99.1554 157.67C100.565 157.67 101.495 158.82 101.495 160.42ZM100.445 160.42C100.445 159.23 99.8154 158.56 98.9454 158.56C98.1054 158.56 97.4454 159.23 97.4454 160.42C97.4454 161.59 98.0954 162.27 98.9454 162.27C99.8154 162.27 100.445 161.61 100.445 160.42ZM104.699 163.17C103.169 163.17 102.139 162.06 102.139 160.39C102.139 158.82 103.209 157.67 104.669 157.67C106.249 157.67 107.299 158.95 107.119 160.67H103.169C103.249 161.75 103.789 162.38 104.679 162.38C105.429 162.38 105.949 161.97 106.119 161.28H107.119C106.859 162.46 105.949 163.17 104.699 163.17ZM104.649 158.43C103.839 158.43 103.289 159.01 103.179 160H106.049C105.999 159.02 105.469 158.43 104.649 158.43ZM109.203 160.08V163.07H108.193V157.77H109.133V158.65C109.493 158.06 110.093 157.67 110.823 157.67C111.913 157.67 112.633 158.37 112.633 159.64V163.07H111.623V159.98C111.623 159.07 111.223 158.56 110.473 158.56C109.783 158.56 109.203 159.14 109.203 160.08ZM113.594 160.42C113.594 158.81 114.514 157.67 115.944 157.67C116.654 157.67 117.274 158.03 117.644 158.68V155.89H118.654V163.07H117.714V162.12C117.334 162.79 116.694 163.17 115.944 163.17C114.514 163.17 113.594 162.01 113.594 160.42ZM114.644 160.42C114.644 161.6 115.264 162.27 116.144 162.27C117.004 162.27 117.644 161.57 117.644 160.4C117.644 159.21 116.984 158.56 116.144 158.56C115.264 158.56 114.644 159.22 114.644 160.42Z" fill="#121212"/>
<rect x="143.954" y="151.055" width="16" height="16" rx="4" fill="#8E22EA"/>
<path d="M171.904 160.995C171.904 162.305 170.944 163.055 169.454 163.055H166.824V155.875H169.314C170.764 155.875 171.634 156.545 171.634 157.755C171.634 158.435 171.224 159.015 170.534 159.315C171.424 159.565 171.904 160.175 171.904 160.995ZM169.244 156.755H167.834V158.915H169.244C170.114 158.915 170.584 158.505 170.584 157.835C170.584 157.165 170.114 156.755 169.244 156.755ZM169.384 159.795H167.834V162.175H169.384C170.324 162.175 170.854 161.725 170.854 160.965C170.854 160.235 170.324 159.795 169.384 159.795ZM176.402 160.875V157.755H177.412V163.055H176.472V162.215C176.192 162.765 175.572 163.155 174.852 163.155C173.782 163.155 173.042 162.525 173.042 161.165V157.755H174.052V160.965C174.052 161.885 174.512 162.265 175.172 162.265C175.852 162.265 176.402 161.705 176.402 160.875ZM178.434 160.405C178.434 158.795 179.354 157.655 180.784 157.655C181.494 157.655 182.114 158.015 182.484 158.665V155.875H183.494V163.055H182.554V162.105C182.174 162.775 181.534 163.155 180.784 163.155C179.354 163.155 178.434 161.995 178.434 160.405ZM179.484 160.405C179.484 161.585 180.104 162.255 180.984 162.255C181.844 162.255 182.484 161.555 182.484 160.385C182.484 159.195 181.824 158.545 180.984 158.545C180.104 158.545 179.484 159.205 179.484 160.405ZM187.018 165.095C185.628 165.095 184.728 164.355 184.668 163.155H185.648C185.708 163.895 186.188 164.295 187.008 164.295C187.918 164.295 188.398 163.805 188.398 162.895V161.935C188.098 162.575 187.498 162.945 186.778 162.945C185.458 162.945 184.518 161.855 184.518 160.295C184.518 158.715 185.418 157.655 186.748 157.655C187.508 157.655 188.108 158.025 188.468 158.695V157.755H189.408V162.875C189.408 164.265 188.518 165.095 187.018 165.095ZM185.538 160.295C185.538 161.395 186.078 162.065 186.958 162.065C187.818 162.065 188.398 161.375 188.398 160.325C188.398 159.225 187.828 158.525 186.958 158.525C186.088 158.525 185.538 159.205 185.538 160.295ZM192.986 163.155C191.456 163.155 190.426 162.045 190.426 160.375C190.426 158.805 191.496 157.655 192.956 157.655C194.536 157.655 195.586 158.935 195.406 160.655H191.456C191.536 161.735 192.076 162.365 192.966 162.365C193.716 162.365 194.236 161.955 194.406 161.265H195.406C195.146 162.445 194.236 163.155 192.986 163.155ZM192.936 158.415C192.126 158.415 191.576 158.995 191.466 159.985H194.336C194.286 159.005 193.756 158.415 192.936 158.415ZM199.451 162.075V162.965C199.141 163.105 198.871 163.155 198.551 163.155C197.571 163.155 196.891 162.625 196.891 161.455V158.615H195.721V157.755H196.891V156.185H197.901V157.755H199.501V158.615H197.901V161.225C197.901 161.955 198.251 162.215 198.791 162.215C199.031 162.215 199.241 162.175 199.451 162.075Z" fill="#121212"/>
</g>
<defs>
<filter id="filter0_dd_4274_98" x="0.145508" y="62.1377" width="532" height="483" filterUnits="userSpaceOnUse" color-interpolation-filters="sRGB">
<feFlood flood-opacity="0" result="BackgroundImageFix"/>
<feColorMatrix in="SourceAlpha" type="matrix" values="0 0 0 0 0 0 0 0 0 0 0 0 0 0 0 0 0 0 127 0" result="hardAlpha"/>
<feMorphology radius="1" operator="erode" in="SourceAlpha" result="effect1_dropShadow_4274_98"/>
<feOffset dy="1"/>
<feGaussianBlur stdDeviation="1"/>
<feComposite in2="hardAlpha" operator="out"/>
<feColorMatrix type="matrix" values="0 0 0 0 0 0 0 0 0 0 0 0 0 0 0 0 0 0 0.05 0"/>
<feBlend mode="normal" in2="BackgroundImageFix" result="effect1_dropShadow_4274_98"/>
<feColorMatrix in="SourceAlpha" type="matrix" values="0 0 0 0 0 0 0 0 0 0 0 0 0 0 0 0 0 0 127 0" result="hardAlpha"/>
<feOffset dy="1"/>
<feGaussianBlur stdDeviation="1.5"/>
<feComposite in2="hardAlpha" operator="out"/>
<feColorMatrix type="matrix" values="0 0 0 0 0 0 0 0 0 0 0 0 0 0 0 0 0 0 0.05 0"/>
<feBlend mode="normal" in2="effect1_dropShadow_4274_98" result="effect2_dropShadow_4274_98"/>
<feBlend mode="normal" in="SourceGraphic" in2="effect2_dropShadow_4274_98" result="shape"/>
</filter>
</defs>
</svg>
