<svg width="16" height="16" viewBox="0 0 16 16" fill="none" xmlns="http://www.w3.org/2000/svg">
<path d="M12.66 12.6666H12.6663H12.66ZM12.66 12.6666C12.2449 13.0783 11.4925 12.9758 10.9649 12.9758C10.3173 12.9758 10.0055 13.1024 9.54327 13.5646C9.14974 13.9582 8.62214 14.6666 7.99967 14.6666C7.37721 14.6666 6.84961 13.9582 6.45605 13.5646C5.99386 13.1024 5.682 12.9758 5.03438 12.9758C4.50679 12.9758 3.75446 13.0783 3.33933 12.6666C2.92088 12.2517 3.02386 11.4962 3.02386 10.9652C3.02386 10.2942 2.87711 9.98571 2.39926 9.50785C1.68843 8.79705 1.33302 8.44158 1.33301 7.99998C1.33301 7.55831 1.68842 7.20291 2.39924 6.49209C2.82581 6.06553 3.02386 5.64283 3.02386 5.03469C3.02386 4.50708 2.92133 3.75474 3.33301 3.33961C3.74796 2.92117 4.50341 3.02415 5.03439 3.02415C5.64252 3.02415 6.06522 2.82611 6.49177 2.39956C7.20261 1.68873 7.55801 1.33331 7.99967 1.33331C8.44134 1.33331 8.79674 1.68873 9.50754 2.39956C9.93401 2.82603 10.3567 3.02415 10.9649 3.02415C11.4925 3.02415 12.2449 2.92163 12.6601 3.33331C13.0785 3.74827 12.9755 4.50371 12.9755 5.03469C12.9755 5.7057 13.1223 6.01423 13.6001 6.49209C14.3109 7.20291 14.6663 7.55831 14.6663 7.99998C14.6663 8.44158 14.3109 8.79705 13.6001 9.50785C13.1222 9.98571 12.9755 10.2942 12.9755 10.9652C12.9755 11.4962 13.0785 12.2517 12.66 12.6666Z" fill="#16AF38"/>
<path d="M12.66 12.6666H12.6663M12.66 12.6666C12.2449 13.0783 11.4925 12.9758 10.9649 12.9758C10.3173 12.9758 10.0055 13.1024 9.54327 13.5646C9.14974 13.9582 8.62214 14.6666 7.99967 14.6666C7.37721 14.6666 6.84961 13.9582 6.45605 13.5646C5.99386 13.1024 5.682 12.9758 5.03438 12.9758C4.50679 12.9758 3.75446 13.0783 3.33933 12.6666C2.92088 12.2517 3.02386 11.4962 3.02386 10.9652C3.02386 10.2942 2.87711 9.98571 2.39926 9.50785C1.68843 8.79705 1.33302 8.44158 1.33301 7.99998C1.33301 7.55831 1.68842 7.20291 2.39924 6.49209C2.82581 6.06553 3.02386 5.64283 3.02386 5.03469C3.02386 4.50708 2.92133 3.75474 3.33301 3.33961C3.74796 2.92117 4.50341 3.02415 5.03439 3.02415C5.64252 3.02415 6.06522 2.82611 6.49177 2.39956C7.20261 1.68873 7.55801 1.33331 7.99967 1.33331C8.44134 1.33331 8.79674 1.68873 9.50754 2.39956C9.93401 2.82603 10.3567 3.02415 10.9649 3.02415C11.4925 3.02415 12.2449 2.92163 12.6601 3.33331C13.0785 3.74827 12.9755 4.50371 12.9755 5.03469C12.9755 5.7057 13.1223 6.01423 13.6001 6.49209C14.3109 7.20291 14.6663 7.55831 14.6663 7.99998C14.6663 8.44158 14.3109 8.79705 13.6001 9.50785C13.1222 9.98571 12.9755 10.2942 12.9755 10.9652C12.9755 11.4962 13.0785 12.2517 12.66 12.6666Z" stroke="#16AF38" stroke-width="1.5"/>
<path d="M6 8.59525L7.2 9.66665L10 6.33331" stroke="#E2FFE8" stroke-width="1.5" stroke-linecap="round" stroke-linejoin="round"/>
</svg>
